<mxfile host="Electron" modified="2024-05-30T03:17:59.344Z" agent="Mozilla/5.0 (Windows NT 10.0; Win64; x64) AppleWebKit/537.36 (KHTML, like Gecko) draw.io/21.2.8 Chrome/112.0.5615.165 Electron/24.2.0 Safari/537.36" etag="ca8d6ONKYcfA3ySThP0t" version="21.2.8" type="device">
  <diagram name="PÃ¡gina-1" id="F1sMnR36SPnlBgAj7KD9">
    <mxGraphModel dx="407" dy="473" grid="1" gridSize="10" guides="1" tooltips="1" connect="1" arrows="1" fold="1" page="1" pageScale="1" pageWidth="827" pageHeight="1169" math="0" shadow="0">
      <root>
        <mxCell id="0" />
        <mxCell id="1" parent="0" />
        <mxCell id="aLZQUD1DjnwFZ4S-cesx-209" value="" style="rounded=0;whiteSpace=wrap;html=1;" vertex="1" parent="1">
          <mxGeometry x="1041" y="720" width="260" height="180" as="geometry" />
        </mxCell>
        <mxCell id="JrdyqNXi1djWCPfoIWIr-241" value="" style="rounded=0;whiteSpace=wrap;html=1;" parent="1" vertex="1">
          <mxGeometry x="430" y="790" width="260" height="180" as="geometry" />
        </mxCell>
        <mxCell id="8PSHEU-mOaa6G_zH4tAH-1" value="1" style="rounded=0;whiteSpace=wrap;html=1;fillColor=#FFD966;" parent="1" vertex="1">
          <mxGeometry x="120" y="320" width="40" height="40" as="geometry" />
        </mxCell>
        <mxCell id="8PSHEU-mOaa6G_zH4tAH-2" value="11" style="rounded=0;whiteSpace=wrap;html=1;fillColor=#FFD966;" parent="1" vertex="1">
          <mxGeometry x="120" y="360" width="40" height="40" as="geometry" />
        </mxCell>
        <mxCell id="8PSHEU-mOaa6G_zH4tAH-3" value="22" style="rounded=0;whiteSpace=wrap;html=1;fillColor=#FFD966;" parent="1" vertex="1">
          <mxGeometry x="120" y="400" width="40" height="40" as="geometry" />
        </mxCell>
        <mxCell id="8PSHEU-mOaa6G_zH4tAH-4" value="33" style="rounded=0;whiteSpace=wrap;html=1;fillColor=#FFD966;" parent="1" vertex="1">
          <mxGeometry x="120" y="440" width="40" height="40" as="geometry" />
        </mxCell>
        <mxCell id="8PSHEU-mOaa6G_zH4tAH-5" value="44" style="rounded=0;whiteSpace=wrap;html=1;fillColor=#FFD966;" parent="1" vertex="1">
          <mxGeometry x="120" y="480" width="40" height="40" as="geometry" />
        </mxCell>
        <mxCell id="8PSHEU-mOaa6G_zH4tAH-9" value="" style="rounded=0;whiteSpace=wrap;html=1;fillColor=#9999FF;" parent="1" vertex="1">
          <mxGeometry x="160" y="320" width="40" height="40" as="geometry" />
        </mxCell>
        <mxCell id="8PSHEU-mOaa6G_zH4tAH-10" value="" style="rounded=0;whiteSpace=wrap;html=1;fillColor=#9999FF;" parent="1" vertex="1">
          <mxGeometry x="160" y="360" width="40" height="40" as="geometry" />
        </mxCell>
        <mxCell id="8PSHEU-mOaa6G_zH4tAH-11" value="" style="rounded=0;whiteSpace=wrap;html=1;fillColor=#9999FF;" parent="1" vertex="1">
          <mxGeometry x="160" y="400" width="40" height="40" as="geometry" />
        </mxCell>
        <mxCell id="8PSHEU-mOaa6G_zH4tAH-12" value="" style="rounded=0;whiteSpace=wrap;html=1;fillColor=#9999FF;" parent="1" vertex="1">
          <mxGeometry x="160" y="440" width="40" height="40" as="geometry" />
        </mxCell>
        <mxCell id="8PSHEU-mOaa6G_zH4tAH-13" value="" style="rounded=0;whiteSpace=wrap;html=1;fillColor=#9999FF;" parent="1" vertex="1">
          <mxGeometry x="160" y="480" width="40" height="40" as="geometry" />
        </mxCell>
        <mxCell id="8PSHEU-mOaa6G_zH4tAH-14" value="" style="rounded=0;whiteSpace=wrap;html=1;fillColor=#FF66B3;" parent="1" vertex="1">
          <mxGeometry x="200" y="320" width="40" height="40" as="geometry" />
        </mxCell>
        <mxCell id="8PSHEU-mOaa6G_zH4tAH-15" value="" style="rounded=0;whiteSpace=wrap;html=1;fillColor=#FF66B3;" parent="1" vertex="1">
          <mxGeometry x="200" y="360" width="40" height="40" as="geometry" />
        </mxCell>
        <mxCell id="8PSHEU-mOaa6G_zH4tAH-16" value="" style="rounded=0;whiteSpace=wrap;html=1;fillColor=#FF66B3;" parent="1" vertex="1">
          <mxGeometry x="200" y="400" width="40" height="40" as="geometry" />
        </mxCell>
        <mxCell id="8PSHEU-mOaa6G_zH4tAH-17" value="" style="rounded=0;whiteSpace=wrap;html=1;fillColor=#FF66B3;" parent="1" vertex="1">
          <mxGeometry x="200" y="440" width="40" height="40" as="geometry" />
        </mxCell>
        <mxCell id="8PSHEU-mOaa6G_zH4tAH-18" value="" style="rounded=0;whiteSpace=wrap;html=1;fillColor=#FF66B3;" parent="1" vertex="1">
          <mxGeometry x="200" y="480" width="40" height="40" as="geometry" />
        </mxCell>
        <mxCell id="8PSHEU-mOaa6G_zH4tAH-19" value="" style="rounded=0;whiteSpace=wrap;html=1;fillColor=#CCCCFF;" parent="1" vertex="1">
          <mxGeometry x="240" y="320" width="40" height="40" as="geometry" />
        </mxCell>
        <mxCell id="8PSHEU-mOaa6G_zH4tAH-20" value="" style="rounded=0;whiteSpace=wrap;html=1;fillColor=#CCCCFF;" parent="1" vertex="1">
          <mxGeometry x="240" y="360" width="40" height="40" as="geometry" />
        </mxCell>
        <mxCell id="8PSHEU-mOaa6G_zH4tAH-21" value="" style="rounded=0;whiteSpace=wrap;html=1;fillColor=#CCCCFF;" parent="1" vertex="1">
          <mxGeometry x="240" y="400" width="40" height="40" as="geometry" />
        </mxCell>
        <mxCell id="8PSHEU-mOaa6G_zH4tAH-22" value="" style="rounded=0;whiteSpace=wrap;html=1;fillColor=#CCCCFF;" parent="1" vertex="1">
          <mxGeometry x="240" y="440" width="40" height="40" as="geometry" />
        </mxCell>
        <mxCell id="8PSHEU-mOaa6G_zH4tAH-23" value="" style="rounded=0;whiteSpace=wrap;html=1;fillColor=#CCCCFF;" parent="1" vertex="1">
          <mxGeometry x="240" y="480" width="40" height="40" as="geometry" />
        </mxCell>
        <mxCell id="8PSHEU-mOaa6G_zH4tAH-24" value="..." style="rounded=0;whiteSpace=wrap;html=1;" parent="1" vertex="1">
          <mxGeometry x="280" y="320" width="40" height="40" as="geometry" />
        </mxCell>
        <mxCell id="8PSHEU-mOaa6G_zH4tAH-25" value="..." style="rounded=0;whiteSpace=wrap;html=1;" parent="1" vertex="1">
          <mxGeometry x="280" y="360" width="40" height="40" as="geometry" />
        </mxCell>
        <mxCell id="8PSHEU-mOaa6G_zH4tAH-26" value="..." style="rounded=0;whiteSpace=wrap;html=1;" parent="1" vertex="1">
          <mxGeometry x="280" y="400" width="40" height="40" as="geometry" />
        </mxCell>
        <mxCell id="8PSHEU-mOaa6G_zH4tAH-27" value="..." style="rounded=0;whiteSpace=wrap;html=1;" parent="1" vertex="1">
          <mxGeometry x="280" y="440" width="40" height="40" as="geometry" />
        </mxCell>
        <mxCell id="8PSHEU-mOaa6G_zH4tAH-28" value="..." style="rounded=0;whiteSpace=wrap;html=1;" parent="1" vertex="1">
          <mxGeometry x="280" y="480" width="40" height="40" as="geometry" />
        </mxCell>
        <mxCell id="8PSHEU-mOaa6G_zH4tAH-29" value="" style="rounded=0;whiteSpace=wrap;html=1;fillColor=#FFCCE6;" parent="1" vertex="1">
          <mxGeometry x="320" y="320" width="40" height="40" as="geometry" />
        </mxCell>
        <mxCell id="8PSHEU-mOaa6G_zH4tAH-30" value="" style="rounded=0;whiteSpace=wrap;html=1;fillColor=#FFCCE6;" parent="1" vertex="1">
          <mxGeometry x="320" y="360" width="40" height="40" as="geometry" />
        </mxCell>
        <mxCell id="8PSHEU-mOaa6G_zH4tAH-31" value="" style="rounded=0;whiteSpace=wrap;html=1;fillColor=#FFCCE6;" parent="1" vertex="1">
          <mxGeometry x="320" y="400" width="40" height="40" as="geometry" />
        </mxCell>
        <mxCell id="8PSHEU-mOaa6G_zH4tAH-32" value="" style="rounded=0;whiteSpace=wrap;html=1;fillColor=#FFCCE6;" parent="1" vertex="1">
          <mxGeometry x="320" y="440" width="40" height="40" as="geometry" />
        </mxCell>
        <mxCell id="8PSHEU-mOaa6G_zH4tAH-33" value="" style="rounded=0;whiteSpace=wrap;html=1;fillColor=#FFCCE6;" parent="1" vertex="1">
          <mxGeometry x="320" y="480" width="40" height="40" as="geometry" />
        </mxCell>
        <mxCell id="8PSHEU-mOaa6G_zH4tAH-34" value="0" style="text;html=1;align=center;verticalAlign=middle;resizable=0;points=[];autosize=1;strokeColor=none;fillColor=none;" parent="1" vertex="1">
          <mxGeometry x="125" y="290" width="30" height="30" as="geometry" />
        </mxCell>
        <mxCell id="8PSHEU-mOaa6G_zH4tAH-35" value="1" style="text;html=1;align=center;verticalAlign=middle;resizable=0;points=[];autosize=1;strokeColor=none;fillColor=none;" parent="1" vertex="1">
          <mxGeometry x="165" y="290" width="30" height="30" as="geometry" />
        </mxCell>
        <mxCell id="8PSHEU-mOaa6G_zH4tAH-36" value="2" style="text;html=1;align=center;verticalAlign=middle;resizable=0;points=[];autosize=1;strokeColor=none;fillColor=none;" parent="1" vertex="1">
          <mxGeometry x="205" y="290" width="30" height="30" as="geometry" />
        </mxCell>
        <mxCell id="8PSHEU-mOaa6G_zH4tAH-37" value="3" style="text;html=1;align=center;verticalAlign=middle;resizable=0;points=[];autosize=1;strokeColor=none;fillColor=none;" parent="1" vertex="1">
          <mxGeometry x="245" y="290" width="30" height="30" as="geometry" />
        </mxCell>
        <mxCell id="8PSHEU-mOaa6G_zH4tAH-38" value="255" style="text;html=1;align=center;verticalAlign=middle;resizable=0;points=[];autosize=1;strokeColor=none;fillColor=none;" parent="1" vertex="1">
          <mxGeometry x="320" y="290" width="40" height="30" as="geometry" />
        </mxCell>
        <mxCell id="BUu5zhxkGHuoBAb7sGXQ-1" value="" style="rounded=0;whiteSpace=wrap;html=1;" parent="1" vertex="1">
          <mxGeometry x="400" y="320" width="1040" height="40" as="geometry" />
        </mxCell>
        <mxCell id="BUu5zhxkGHuoBAb7sGXQ-2" value="" style="rounded=0;whiteSpace=wrap;html=1;fillColor=#FFD966;" parent="1" vertex="1">
          <mxGeometry x="400" y="320" width="40" height="40" as="geometry" />
        </mxCell>
        <mxCell id="BUu5zhxkGHuoBAb7sGXQ-3" value="" style="rounded=0;whiteSpace=wrap;html=1;fillColor=#9999FF;" parent="1" vertex="1">
          <mxGeometry x="440" y="320" width="40" height="40" as="geometry" />
        </mxCell>
        <mxCell id="BUu5zhxkGHuoBAb7sGXQ-4" value="" style="rounded=0;whiteSpace=wrap;html=1;fillColor=#FF66B3;" parent="1" vertex="1">
          <mxGeometry x="480" y="320" width="40" height="40" as="geometry" />
        </mxCell>
        <mxCell id="BUu5zhxkGHuoBAb7sGXQ-5" value="" style="rounded=0;whiteSpace=wrap;html=1;fillColor=#CCCCFF;" parent="1" vertex="1">
          <mxGeometry x="520" y="320" width="40" height="40" as="geometry" />
        </mxCell>
        <mxCell id="BUu5zhxkGHuoBAb7sGXQ-6" value="..." style="rounded=0;whiteSpace=wrap;html=1;" parent="1" vertex="1">
          <mxGeometry x="560" y="320" width="40" height="40" as="geometry" />
        </mxCell>
        <mxCell id="BUu5zhxkGHuoBAb7sGXQ-7" value="" style="rounded=0;whiteSpace=wrap;html=1;fillColor=#FFCCE6;" parent="1" vertex="1">
          <mxGeometry x="600" y="320" width="40" height="40" as="geometry" />
        </mxCell>
        <mxCell id="BUu5zhxkGHuoBAb7sGXQ-9" value="0,0" style="text;html=1;strokeColor=none;fillColor=none;align=center;verticalAlign=middle;whiteSpace=wrap;rounded=0;" parent="1" vertex="1">
          <mxGeometry x="80" y="325" width="40" height="30" as="geometry" />
        </mxCell>
        <mxCell id="BUu5zhxkGHuoBAb7sGXQ-10" value="1,0" style="text;html=1;strokeColor=none;fillColor=none;align=center;verticalAlign=middle;whiteSpace=wrap;rounded=0;" parent="1" vertex="1">
          <mxGeometry x="80" y="365" width="40" height="30" as="geometry" />
        </mxCell>
        <mxCell id="BUu5zhxkGHuoBAb7sGXQ-12" value="" style="rounded=0;whiteSpace=wrap;html=1;fillColor=#FFD966;" parent="1" vertex="1">
          <mxGeometry x="640" y="320" width="40" height="40" as="geometry" />
        </mxCell>
        <mxCell id="BUu5zhxkGHuoBAb7sGXQ-13" value="" style="rounded=0;whiteSpace=wrap;html=1;fillColor=#9999FF;" parent="1" vertex="1">
          <mxGeometry x="680" y="320" width="40" height="40" as="geometry" />
        </mxCell>
        <mxCell id="BUu5zhxkGHuoBAb7sGXQ-14" value="" style="rounded=0;whiteSpace=wrap;html=1;fillColor=#FF66B3;" parent="1" vertex="1">
          <mxGeometry x="720" y="320" width="40" height="40" as="geometry" />
        </mxCell>
        <mxCell id="BUu5zhxkGHuoBAb7sGXQ-15" value="" style="rounded=0;whiteSpace=wrap;html=1;fillColor=#CCCCFF;" parent="1" vertex="1">
          <mxGeometry x="760" y="320" width="40" height="40" as="geometry" />
        </mxCell>
        <mxCell id="BUu5zhxkGHuoBAb7sGXQ-16" value="..." style="rounded=0;whiteSpace=wrap;html=1;" parent="1" vertex="1">
          <mxGeometry x="800" y="320" width="40" height="40" as="geometry" />
        </mxCell>
        <mxCell id="BUu5zhxkGHuoBAb7sGXQ-17" value="" style="rounded=0;whiteSpace=wrap;html=1;fillColor=#FFCCE6;" parent="1" vertex="1">
          <mxGeometry x="840" y="320" width="40" height="40" as="geometry" />
        </mxCell>
        <mxCell id="BUu5zhxkGHuoBAb7sGXQ-18" value="" style="rounded=0;whiteSpace=wrap;html=1;" parent="1" vertex="1">
          <mxGeometry x="120" y="40" width="240" height="160" as="geometry" />
        </mxCell>
        <mxCell id="BUu5zhxkGHuoBAb7sGXQ-20" value="" style="rounded=0;whiteSpace=wrap;html=1;" parent="1" vertex="1">
          <mxGeometry x="120" y="40" width="80" height="80" as="geometry" />
        </mxCell>
        <mxCell id="BUu5zhxkGHuoBAb7sGXQ-21" value="1" style="rounded=0;whiteSpace=wrap;html=1;" parent="1" vertex="1">
          <mxGeometry x="200" y="40" width="80" height="80" as="geometry" />
        </mxCell>
        <mxCell id="BUu5zhxkGHuoBAb7sGXQ-22" value="2" style="rounded=0;whiteSpace=wrap;html=1;" parent="1" vertex="1">
          <mxGeometry x="280" y="40" width="80" height="80" as="geometry" />
        </mxCell>
        <mxCell id="BUu5zhxkGHuoBAb7sGXQ-23" value="3" style="rounded=0;whiteSpace=wrap;html=1;" parent="1" vertex="1">
          <mxGeometry x="120" y="120" width="80" height="80" as="geometry" />
        </mxCell>
        <mxCell id="BUu5zhxkGHuoBAb7sGXQ-24" value="4" style="rounded=0;whiteSpace=wrap;html=1;" parent="1" vertex="1">
          <mxGeometry x="200" y="120" width="80" height="80" as="geometry" />
        </mxCell>
        <mxCell id="BUu5zhxkGHuoBAb7sGXQ-25" value="5" style="rounded=0;whiteSpace=wrap;html=1;" parent="1" vertex="1">
          <mxGeometry x="280" y="120" width="80" height="80" as="geometry" />
        </mxCell>
        <mxCell id="BUu5zhxkGHuoBAb7sGXQ-26" value="0,0" style="text;html=1;strokeColor=none;fillColor=none;align=center;verticalAlign=middle;whiteSpace=wrap;rounded=0;" parent="1" vertex="1">
          <mxGeometry x="130" y="18" width="60" height="30" as="geometry" />
        </mxCell>
        <mxCell id="BUu5zhxkGHuoBAb7sGXQ-27" value="1,0" style="text;html=1;align=center;verticalAlign=middle;resizable=0;points=[];autosize=1;strokeColor=none;fillColor=none;" parent="1" vertex="1">
          <mxGeometry x="220" y="18" width="40" height="30" as="geometry" />
        </mxCell>
        <mxCell id="BUu5zhxkGHuoBAb7sGXQ-28" value="2,0" style="text;html=1;align=center;verticalAlign=middle;resizable=0;points=[];autosize=1;strokeColor=none;fillColor=none;" parent="1" vertex="1">
          <mxGeometry x="300" y="18" width="40" height="30" as="geometry" />
        </mxCell>
        <mxCell id="BUu5zhxkGHuoBAb7sGXQ-29" value="0,1" style="text;html=1;strokeColor=none;fillColor=none;align=center;verticalAlign=middle;whiteSpace=wrap;rounded=0;" parent="1" vertex="1">
          <mxGeometry x="130" y="200" width="60" height="30" as="geometry" />
        </mxCell>
        <mxCell id="BUu5zhxkGHuoBAb7sGXQ-30" value="1,1" style="text;html=1;align=center;verticalAlign=middle;resizable=0;points=[];autosize=1;strokeColor=none;fillColor=none;" parent="1" vertex="1">
          <mxGeometry x="220" y="198" width="40" height="30" as="geometry" />
        </mxCell>
        <mxCell id="BUu5zhxkGHuoBAb7sGXQ-31" value="2,1" style="text;html=1;align=center;verticalAlign=middle;resizable=0;points=[];autosize=1;strokeColor=none;fillColor=none;" parent="1" vertex="1">
          <mxGeometry x="300" y="198" width="40" height="30" as="geometry" />
        </mxCell>
        <mxCell id="BUu5zhxkGHuoBAb7sGXQ-32" value="block_pos= blockidx.y * (numBlocks.x-1) + blockidx.x" style="text;html=1;strokeColor=none;fillColor=none;align=left;verticalAlign=middle;whiteSpace=wrap;rounded=0;" parent="1" vertex="1">
          <mxGeometry x="400" y="48" width="310" height="30" as="geometry" />
        </mxCell>
        <mxCell id="BUu5zhxkGHuoBAb7sGXQ-33" value="00" style="rounded=0;whiteSpace=wrap;html=1;fillColor=#FFD966;" parent="1" vertex="1">
          <mxGeometry x="120" y="320" width="40" height="40" as="geometry" />
        </mxCell>
        <mxCell id="BUu5zhxkGHuoBAb7sGXQ-34" value="" style="rounded=0;whiteSpace=wrap;html=1;fillColor=#9999FF;" parent="1" vertex="1">
          <mxGeometry x="160" y="320" width="40" height="40" as="geometry" />
        </mxCell>
        <mxCell id="BUu5zhxkGHuoBAb7sGXQ-35" value="" style="rounded=0;whiteSpace=wrap;html=1;fillColor=#FF66B3;" parent="1" vertex="1">
          <mxGeometry x="200" y="320" width="40" height="40" as="geometry" />
        </mxCell>
        <mxCell id="JrdyqNXi1djWCPfoIWIr-1" value="" style="rounded=0;whiteSpace=wrap;html=1;fillColor=#FFD966;" parent="1" vertex="1">
          <mxGeometry x="880" y="320" width="40" height="40" as="geometry" />
        </mxCell>
        <mxCell id="JrdyqNXi1djWCPfoIWIr-2" value="" style="rounded=0;whiteSpace=wrap;html=1;fillColor=#9999FF;" parent="1" vertex="1">
          <mxGeometry x="920" y="320" width="40" height="40" as="geometry" />
        </mxCell>
        <mxCell id="JrdyqNXi1djWCPfoIWIr-3" value="" style="rounded=0;whiteSpace=wrap;html=1;fillColor=#FF66B3;" parent="1" vertex="1">
          <mxGeometry x="960" y="320" width="40" height="40" as="geometry" />
        </mxCell>
        <mxCell id="JrdyqNXi1djWCPfoIWIr-4" value="" style="rounded=0;whiteSpace=wrap;html=1;fillColor=#CCCCFF;" parent="1" vertex="1">
          <mxGeometry x="1000" y="320" width="40" height="40" as="geometry" />
        </mxCell>
        <mxCell id="JrdyqNXi1djWCPfoIWIr-5" value="..." style="rounded=0;whiteSpace=wrap;html=1;" parent="1" vertex="1">
          <mxGeometry x="1040" y="320" width="40" height="40" as="geometry" />
        </mxCell>
        <mxCell id="JrdyqNXi1djWCPfoIWIr-6" value="" style="rounded=0;whiteSpace=wrap;html=1;fillColor=#FFCCE6;" parent="1" vertex="1">
          <mxGeometry x="1080" y="320" width="40" height="40" as="geometry" />
        </mxCell>
        <mxCell id="JrdyqNXi1djWCPfoIWIr-7" value="" style="rounded=0;whiteSpace=wrap;html=1;fillColor=#FFD966;" parent="1" vertex="1">
          <mxGeometry x="1120" y="320" width="40" height="40" as="geometry" />
        </mxCell>
        <mxCell id="JrdyqNXi1djWCPfoIWIr-8" value="" style="rounded=0;whiteSpace=wrap;html=1;fillColor=#9999FF;" parent="1" vertex="1">
          <mxGeometry x="1160" y="320" width="40" height="40" as="geometry" />
        </mxCell>
        <mxCell id="JrdyqNXi1djWCPfoIWIr-9" value="" style="rounded=0;whiteSpace=wrap;html=1;fillColor=#FF66B3;" parent="1" vertex="1">
          <mxGeometry x="1200" y="320" width="40" height="40" as="geometry" />
        </mxCell>
        <mxCell id="JrdyqNXi1djWCPfoIWIr-10" value="" style="rounded=0;whiteSpace=wrap;html=1;fillColor=#CCCCFF;" parent="1" vertex="1">
          <mxGeometry x="1240" y="320" width="40" height="40" as="geometry" />
        </mxCell>
        <mxCell id="JrdyqNXi1djWCPfoIWIr-11" value="..." style="rounded=0;whiteSpace=wrap;html=1;" parent="1" vertex="1">
          <mxGeometry x="1280" y="320" width="40" height="40" as="geometry" />
        </mxCell>
        <mxCell id="JrdyqNXi1djWCPfoIWIr-12" value="" style="rounded=0;whiteSpace=wrap;html=1;fillColor=#FFCCE6;" parent="1" vertex="1">
          <mxGeometry x="1320" y="320" width="40" height="40" as="geometry" />
        </mxCell>
        <mxCell id="JrdyqNXi1djWCPfoIWIr-21" value="" style="rounded=0;whiteSpace=wrap;html=1;" parent="1" vertex="1">
          <mxGeometry x="120" y="40" width="40" height="40" as="geometry" />
        </mxCell>
        <mxCell id="JrdyqNXi1djWCPfoIWIr-22" value="" style="rounded=0;whiteSpace=wrap;html=1;" parent="1" vertex="1">
          <mxGeometry x="160" y="40" width="40" height="40" as="geometry" />
        </mxCell>
        <mxCell id="JrdyqNXi1djWCPfoIWIr-23" value="" style="rounded=0;whiteSpace=wrap;html=1;" parent="1" vertex="1">
          <mxGeometry x="120" y="80" width="40" height="40" as="geometry" />
        </mxCell>
        <mxCell id="JrdyqNXi1djWCPfoIWIr-24" value="" style="rounded=0;whiteSpace=wrap;html=1;" parent="1" vertex="1">
          <mxGeometry x="160" y="80" width="40" height="40" as="geometry" />
        </mxCell>
        <mxCell id="JrdyqNXi1djWCPfoIWIr-48" value="" style="group" parent="1" vertex="1" connectable="0">
          <mxGeometry x="480" y="480" width="240" height="80" as="geometry" />
        </mxCell>
        <mxCell id="JrdyqNXi1djWCPfoIWIr-40" value="" style="group" parent="JrdyqNXi1djWCPfoIWIr-48" vertex="1" connectable="0">
          <mxGeometry width="240" height="40" as="geometry" />
        </mxCell>
        <mxCell id="JrdyqNXi1djWCPfoIWIr-33" value="0" style="rounded=0;whiteSpace=wrap;html=1;" parent="JrdyqNXi1djWCPfoIWIr-40" vertex="1">
          <mxGeometry width="40" height="40" as="geometry" />
        </mxCell>
        <mxCell id="JrdyqNXi1djWCPfoIWIr-34" value="1" style="rounded=0;whiteSpace=wrap;html=1;" parent="JrdyqNXi1djWCPfoIWIr-40" vertex="1">
          <mxGeometry x="40" width="40" height="40" as="geometry" />
        </mxCell>
        <mxCell id="JrdyqNXi1djWCPfoIWIr-35" value="2" style="rounded=0;whiteSpace=wrap;html=1;" parent="JrdyqNXi1djWCPfoIWIr-40" vertex="1">
          <mxGeometry x="80" width="40" height="40" as="geometry" />
        </mxCell>
        <mxCell id="JrdyqNXi1djWCPfoIWIr-36" value="255" style="rounded=0;whiteSpace=wrap;html=1;" parent="JrdyqNXi1djWCPfoIWIr-40" vertex="1">
          <mxGeometry x="200" width="40" height="40" as="geometry" />
        </mxCell>
        <mxCell id="JrdyqNXi1djWCPfoIWIr-37" value="..." style="rounded=0;whiteSpace=wrap;html=1;" parent="JrdyqNXi1djWCPfoIWIr-40" vertex="1">
          <mxGeometry x="160" width="40" height="40" as="geometry" />
        </mxCell>
        <mxCell id="JrdyqNXi1djWCPfoIWIr-39" value="3" style="rounded=0;whiteSpace=wrap;html=1;" parent="JrdyqNXi1djWCPfoIWIr-40" vertex="1">
          <mxGeometry x="120" width="40" height="40" as="geometry" />
        </mxCell>
        <mxCell id="JrdyqNXi1djWCPfoIWIr-41" value="" style="group" parent="JrdyqNXi1djWCPfoIWIr-48" vertex="1" connectable="0">
          <mxGeometry y="40" width="240" height="40" as="geometry" />
        </mxCell>
        <mxCell id="JrdyqNXi1djWCPfoIWIr-42" value="256" style="rounded=0;whiteSpace=wrap;html=1;" parent="JrdyqNXi1djWCPfoIWIr-41" vertex="1">
          <mxGeometry width="40" height="40" as="geometry" />
        </mxCell>
        <mxCell id="JrdyqNXi1djWCPfoIWIr-43" value="257" style="rounded=0;whiteSpace=wrap;html=1;" parent="JrdyqNXi1djWCPfoIWIr-41" vertex="1">
          <mxGeometry x="40" width="40" height="40" as="geometry" />
        </mxCell>
        <mxCell id="JrdyqNXi1djWCPfoIWIr-44" value="258" style="rounded=0;whiteSpace=wrap;html=1;" parent="JrdyqNXi1djWCPfoIWIr-41" vertex="1">
          <mxGeometry x="80" width="40" height="40" as="geometry" />
        </mxCell>
        <mxCell id="JrdyqNXi1djWCPfoIWIr-45" value="511" style="rounded=0;whiteSpace=wrap;html=1;" parent="JrdyqNXi1djWCPfoIWIr-41" vertex="1">
          <mxGeometry x="200" width="40" height="40" as="geometry" />
        </mxCell>
        <mxCell id="JrdyqNXi1djWCPfoIWIr-46" value="..." style="rounded=0;whiteSpace=wrap;html=1;" parent="JrdyqNXi1djWCPfoIWIr-41" vertex="1">
          <mxGeometry x="160" width="40" height="40" as="geometry" />
        </mxCell>
        <mxCell id="JrdyqNXi1djWCPfoIWIr-47" value="259" style="rounded=0;whiteSpace=wrap;html=1;" parent="JrdyqNXi1djWCPfoIWIr-41" vertex="1">
          <mxGeometry x="120" width="40" height="40" as="geometry" />
        </mxCell>
        <mxCell id="JrdyqNXi1djWCPfoIWIr-49" value="00" style="rounded=0;whiteSpace=wrap;html=1;fillColor=#FFD966;" parent="1" vertex="1">
          <mxGeometry x="440" y="800" width="40" height="40" as="geometry" />
        </mxCell>
        <mxCell id="JrdyqNXi1djWCPfoIWIr-50" value="" style="rounded=0;whiteSpace=wrap;html=1;fillColor=#9999FF;" parent="1" vertex="1">
          <mxGeometry x="480" y="800" width="40" height="40" as="geometry" />
        </mxCell>
        <mxCell id="JrdyqNXi1djWCPfoIWIr-51" value="" style="rounded=0;whiteSpace=wrap;html=1;fillColor=#FF66B3;" parent="1" vertex="1">
          <mxGeometry x="520" y="800" width="40" height="40" as="geometry" />
        </mxCell>
        <mxCell id="JrdyqNXi1djWCPfoIWIr-52" value="" style="rounded=0;whiteSpace=wrap;html=1;fillColor=#CCCCFF;" parent="1" vertex="1">
          <mxGeometry x="560" y="800" width="40" height="40" as="geometry" />
        </mxCell>
        <mxCell id="JrdyqNXi1djWCPfoIWIr-53" value="..." style="rounded=0;whiteSpace=wrap;html=1;" parent="1" vertex="1">
          <mxGeometry x="600" y="800" width="40" height="40" as="geometry" />
        </mxCell>
        <mxCell id="JrdyqNXi1djWCPfoIWIr-54" value="" style="rounded=0;whiteSpace=wrap;html=1;fillColor=#FFCCE6;" parent="1" vertex="1">
          <mxGeometry x="640" y="800" width="40" height="40" as="geometry" />
        </mxCell>
        <mxCell id="JrdyqNXi1djWCPfoIWIr-55" value="01" style="rounded=0;whiteSpace=wrap;html=1;fillColor=#FFD966;" parent="1" vertex="1">
          <mxGeometry x="440" y="839" width="40" height="40" as="geometry" />
        </mxCell>
        <mxCell id="JrdyqNXi1djWCPfoIWIr-56" value="" style="rounded=0;whiteSpace=wrap;html=1;fillColor=#9999FF;" parent="1" vertex="1">
          <mxGeometry x="480" y="839" width="40" height="40" as="geometry" />
        </mxCell>
        <mxCell id="JrdyqNXi1djWCPfoIWIr-57" value="" style="rounded=0;whiteSpace=wrap;html=1;fillColor=#FF66B3;" parent="1" vertex="1">
          <mxGeometry x="520" y="839" width="40" height="40" as="geometry" />
        </mxCell>
        <mxCell id="JrdyqNXi1djWCPfoIWIr-58" value="" style="rounded=0;whiteSpace=wrap;html=1;fillColor=#CCCCFF;" parent="1" vertex="1">
          <mxGeometry x="560" y="839" width="40" height="40" as="geometry" />
        </mxCell>
        <mxCell id="JrdyqNXi1djWCPfoIWIr-59" value="..." style="rounded=0;whiteSpace=wrap;html=1;" parent="1" vertex="1">
          <mxGeometry x="600" y="839" width="40" height="40" as="geometry" />
        </mxCell>
        <mxCell id="JrdyqNXi1djWCPfoIWIr-60" value="" style="rounded=0;whiteSpace=wrap;html=1;fillColor=#FFCCE6;" parent="1" vertex="1">
          <mxGeometry x="640" y="839" width="40" height="40" as="geometry" />
        </mxCell>
        <mxCell id="JrdyqNXi1djWCPfoIWIr-111" value="numbBlocksX, numBlocksY" style="text;html=1;strokeColor=none;fillColor=none;align=center;verticalAlign=middle;whiteSpace=wrap;rounded=0;" parent="1" vertex="1">
          <mxGeometry x="60" y="530" width="40" height="30" as="geometry" />
        </mxCell>
        <mxCell id="JrdyqNXi1djWCPfoIWIr-113" value="55" style="rounded=0;whiteSpace=wrap;html=1;fillColor=#FFD966;" parent="1" vertex="1">
          <mxGeometry x="120" y="520" width="40" height="40" as="geometry" />
        </mxCell>
        <mxCell id="JrdyqNXi1djWCPfoIWIr-114" value="" style="rounded=0;whiteSpace=wrap;html=1;fillColor=#9999FF;" parent="1" vertex="1">
          <mxGeometry x="160" y="520" width="40" height="40" as="geometry" />
        </mxCell>
        <mxCell id="JrdyqNXi1djWCPfoIWIr-115" value="" style="rounded=0;whiteSpace=wrap;html=1;fillColor=#FF66B3;" parent="1" vertex="1">
          <mxGeometry x="200" y="520" width="40" height="40" as="geometry" />
        </mxCell>
        <mxCell id="JrdyqNXi1djWCPfoIWIr-116" value="" style="rounded=0;whiteSpace=wrap;html=1;fillColor=#CCCCFF;" parent="1" vertex="1">
          <mxGeometry x="240" y="520" width="40" height="40" as="geometry" />
        </mxCell>
        <mxCell id="JrdyqNXi1djWCPfoIWIr-117" value="..." style="rounded=0;whiteSpace=wrap;html=1;" parent="1" vertex="1">
          <mxGeometry x="280" y="520" width="40" height="40" as="geometry" />
        </mxCell>
        <mxCell id="JrdyqNXi1djWCPfoIWIr-118" value="" style="rounded=0;whiteSpace=wrap;html=1;fillColor=#FFCCE6;" parent="1" vertex="1">
          <mxGeometry x="320" y="520" width="40" height="40" as="geometry" />
        </mxCell>
        <mxCell id="JrdyqNXi1djWCPfoIWIr-119" value="3840x2160" style="rounded=0;whiteSpace=wrap;html=1;" parent="1" vertex="1">
          <mxGeometry x="40" y="600" width="360" height="760" as="geometry" />
        </mxCell>
        <mxCell id="JrdyqNXi1djWCPfoIWIr-141" value="02" style="rounded=0;whiteSpace=wrap;html=1;fillColor=#FFD966;" parent="1" vertex="1">
          <mxGeometry x="440" y="880" width="40" height="40" as="geometry" />
        </mxCell>
        <mxCell id="JrdyqNXi1djWCPfoIWIr-142" value="" style="rounded=0;whiteSpace=wrap;html=1;fillColor=#9999FF;" parent="1" vertex="1">
          <mxGeometry x="480" y="880" width="40" height="40" as="geometry" />
        </mxCell>
        <mxCell id="JrdyqNXi1djWCPfoIWIr-143" value="" style="rounded=0;whiteSpace=wrap;html=1;fillColor=#FF66B3;" parent="1" vertex="1">
          <mxGeometry x="520" y="880" width="40" height="40" as="geometry" />
        </mxCell>
        <mxCell id="JrdyqNXi1djWCPfoIWIr-144" value="" style="rounded=0;whiteSpace=wrap;html=1;fillColor=#CCCCFF;" parent="1" vertex="1">
          <mxGeometry x="560" y="880" width="40" height="40" as="geometry" />
        </mxCell>
        <mxCell id="JrdyqNXi1djWCPfoIWIr-145" value="..." style="rounded=0;whiteSpace=wrap;html=1;" parent="1" vertex="1">
          <mxGeometry x="600" y="880" width="40" height="40" as="geometry" />
        </mxCell>
        <mxCell id="JrdyqNXi1djWCPfoIWIr-146" value="" style="rounded=0;whiteSpace=wrap;html=1;fillColor=#FFCCE6;" parent="1" vertex="1">
          <mxGeometry x="640" y="880" width="40" height="40" as="geometry" />
        </mxCell>
        <mxCell id="JrdyqNXi1djWCPfoIWIr-147" value="03" style="rounded=0;whiteSpace=wrap;html=1;fillColor=#FFD966;" parent="1" vertex="1">
          <mxGeometry x="440" y="920" width="40" height="40" as="geometry" />
        </mxCell>
        <mxCell id="JrdyqNXi1djWCPfoIWIr-148" value="" style="rounded=0;whiteSpace=wrap;html=1;fillColor=#9999FF;" parent="1" vertex="1">
          <mxGeometry x="480" y="920" width="40" height="40" as="geometry" />
        </mxCell>
        <mxCell id="JrdyqNXi1djWCPfoIWIr-149" value="" style="rounded=0;whiteSpace=wrap;html=1;fillColor=#FF66B3;" parent="1" vertex="1">
          <mxGeometry x="520" y="920" width="40" height="40" as="geometry" />
        </mxCell>
        <mxCell id="JrdyqNXi1djWCPfoIWIr-150" value="" style="rounded=0;whiteSpace=wrap;html=1;fillColor=#CCCCFF;" parent="1" vertex="1">
          <mxGeometry x="560" y="920" width="40" height="40" as="geometry" />
        </mxCell>
        <mxCell id="JrdyqNXi1djWCPfoIWIr-151" value="..." style="rounded=0;whiteSpace=wrap;html=1;" parent="1" vertex="1">
          <mxGeometry x="600" y="920" width="40" height="40" as="geometry" />
        </mxCell>
        <mxCell id="JrdyqNXi1djWCPfoIWIr-152" value="" style="rounded=0;whiteSpace=wrap;html=1;fillColor=#FFCCE6;" parent="1" vertex="1">
          <mxGeometry x="640" y="920" width="40" height="40" as="geometry" />
        </mxCell>
        <mxCell id="JrdyqNXi1djWCPfoIWIr-242" value="1" style="rounded=0;whiteSpace=wrap;html=1;fillColor=#FFD966;fontStyle=0" parent="1" vertex="1">
          <mxGeometry x="1121" y="400" width="40" height="40" as="geometry" />
        </mxCell>
        <mxCell id="JrdyqNXi1djWCPfoIWIr-243" value="11" style="rounded=0;whiteSpace=wrap;html=1;fillColor=#FFD966;fontStyle=0" parent="1" vertex="1">
          <mxGeometry x="1121" y="440" width="40" height="40" as="geometry" />
        </mxCell>
        <mxCell id="JrdyqNXi1djWCPfoIWIr-244" value="22" style="rounded=0;whiteSpace=wrap;html=1;fillColor=#FFD966;fontStyle=0" parent="1" vertex="1">
          <mxGeometry x="1121" y="480" width="40" height="40" as="geometry" />
        </mxCell>
        <mxCell id="JrdyqNXi1djWCPfoIWIr-245" value="33" style="rounded=0;whiteSpace=wrap;html=1;fillColor=#FFD966;fontStyle=0" parent="1" vertex="1">
          <mxGeometry x="1121" y="520" width="40" height="40" as="geometry" />
        </mxCell>
        <mxCell id="JrdyqNXi1djWCPfoIWIr-247" value="" style="rounded=0;whiteSpace=wrap;html=1;fillColor=#9999FF;fontStyle=0" parent="1" vertex="1">
          <mxGeometry x="1161" y="400" width="40" height="40" as="geometry" />
        </mxCell>
        <mxCell id="JrdyqNXi1djWCPfoIWIr-248" value="" style="rounded=0;whiteSpace=wrap;html=1;fillColor=#9999FF;fontStyle=0" parent="1" vertex="1">
          <mxGeometry x="1161" y="440" width="40" height="40" as="geometry" />
        </mxCell>
        <mxCell id="JrdyqNXi1djWCPfoIWIr-249" value="" style="rounded=0;whiteSpace=wrap;html=1;fillColor=#9999FF;fontStyle=0" parent="1" vertex="1">
          <mxGeometry x="1161" y="480" width="40" height="40" as="geometry" />
        </mxCell>
        <mxCell id="JrdyqNXi1djWCPfoIWIr-250" value="" style="rounded=0;whiteSpace=wrap;html=1;fillColor=#9999FF;fontStyle=0" parent="1" vertex="1">
          <mxGeometry x="1161" y="520" width="40" height="40" as="geometry" />
        </mxCell>
        <mxCell id="JrdyqNXi1djWCPfoIWIr-252" value="" style="rounded=0;whiteSpace=wrap;html=1;fillColor=#FF66B3;fontStyle=0" parent="1" vertex="1">
          <mxGeometry x="1201" y="400" width="40" height="40" as="geometry" />
        </mxCell>
        <mxCell id="JrdyqNXi1djWCPfoIWIr-253" value="" style="rounded=0;whiteSpace=wrap;html=1;fillColor=#FF66B3;fontStyle=0" parent="1" vertex="1">
          <mxGeometry x="1201" y="440" width="40" height="40" as="geometry" />
        </mxCell>
        <mxCell id="JrdyqNXi1djWCPfoIWIr-254" value="" style="rounded=0;whiteSpace=wrap;html=1;fillColor=#FF66B3;fontStyle=0" parent="1" vertex="1">
          <mxGeometry x="1201" y="480" width="40" height="40" as="geometry" />
        </mxCell>
        <mxCell id="JrdyqNXi1djWCPfoIWIr-255" value="" style="rounded=0;whiteSpace=wrap;html=1;fillColor=#FF66B3;fontStyle=0" parent="1" vertex="1">
          <mxGeometry x="1201" y="520" width="40" height="40" as="geometry" />
        </mxCell>
        <mxCell id="JrdyqNXi1djWCPfoIWIr-257" value="" style="rounded=0;whiteSpace=wrap;html=1;fillColor=#CCCCFF;fontStyle=0" parent="1" vertex="1">
          <mxGeometry x="1241" y="400" width="40" height="40" as="geometry" />
        </mxCell>
        <mxCell id="JrdyqNXi1djWCPfoIWIr-258" value="" style="rounded=0;whiteSpace=wrap;html=1;fillColor=#CCCCFF;fontStyle=0" parent="1" vertex="1">
          <mxGeometry x="1241" y="440" width="40" height="40" as="geometry" />
        </mxCell>
        <mxCell id="JrdyqNXi1djWCPfoIWIr-259" value="" style="rounded=0;whiteSpace=wrap;html=1;fillColor=#CCCCFF;fontStyle=0" parent="1" vertex="1">
          <mxGeometry x="1241" y="480" width="40" height="40" as="geometry" />
        </mxCell>
        <mxCell id="JrdyqNXi1djWCPfoIWIr-260" value="" style="rounded=0;whiteSpace=wrap;html=1;fillColor=#CCCCFF;fontStyle=0" parent="1" vertex="1">
          <mxGeometry x="1241" y="520" width="40" height="40" as="geometry" />
        </mxCell>
        <mxCell id="JrdyqNXi1djWCPfoIWIr-274" value="00" style="rounded=0;whiteSpace=wrap;html=1;fillColor=#FFD966;fontStyle=0" parent="1" vertex="1">
          <mxGeometry x="1121" y="400" width="40" height="40" as="geometry" />
        </mxCell>
        <mxCell id="JrdyqNXi1djWCPfoIWIr-275" value="" style="rounded=0;whiteSpace=wrap;html=1;fillColor=#9999FF;fontStyle=0" parent="1" vertex="1">
          <mxGeometry x="1161" y="400" width="40" height="40" as="geometry" />
        </mxCell>
        <mxCell id="JrdyqNXi1djWCPfoIWIr-276" value="" style="rounded=0;whiteSpace=wrap;html=1;fillColor=#FF66B3;fontStyle=0" parent="1" vertex="1">
          <mxGeometry x="1201" y="400" width="40" height="40" as="geometry" />
        </mxCell>
        <mxCell id="JrdyqNXi1djWCPfoIWIr-326" value="256*4" style="rounded=0;whiteSpace=wrap;html=1;" parent="1" vertex="1">
          <mxGeometry x="760" y="600" width="240" height="240" as="geometry" />
        </mxCell>
        <mxCell id="JrdyqNXi1djWCPfoIWIr-327" value="256*4" style="rounded=0;whiteSpace=wrap;html=1;" parent="1" vertex="1">
          <mxGeometry x="760" y="840" width="240" height="240" as="geometry" />
        </mxCell>
        <mxCell id="JrdyqNXi1djWCPfoIWIr-344" value="256*4" style="rounded=0;whiteSpace=wrap;html=1;" parent="1" vertex="1">
          <mxGeometry x="760" y="1080" width="240" height="240" as="geometry" />
        </mxCell>
        <mxCell id="JrdyqNXi1djWCPfoIWIr-345" value="256*4" style="rounded=0;whiteSpace=wrap;html=1;" parent="1" vertex="1">
          <mxGeometry x="760" y="1320" width="240" height="240" as="geometry" />
        </mxCell>
        <mxCell id="WFXhQuuayBQoaJ50WYPd-1" value="" style="rounded=0;whiteSpace=wrap;html=1;" parent="1" vertex="1">
          <mxGeometry x="430" y="970" width="260" height="180" as="geometry" />
        </mxCell>
        <mxCell id="WFXhQuuayBQoaJ50WYPd-2" value="res" style="rounded=0;whiteSpace=wrap;html=1;fillColor=#FFD966;" parent="1" vertex="1">
          <mxGeometry x="440" y="980" width="40" height="40" as="geometry" />
        </mxCell>
        <mxCell id="WFXhQuuayBQoaJ50WYPd-3" value="res" style="rounded=0;whiteSpace=wrap;html=1;fillColor=#9999FF;" parent="1" vertex="1">
          <mxGeometry x="480" y="980" width="40" height="40" as="geometry" />
        </mxCell>
        <mxCell id="WFXhQuuayBQoaJ50WYPd-4" value="res" style="rounded=0;whiteSpace=wrap;html=1;fillColor=#FF66B3;" parent="1" vertex="1">
          <mxGeometry x="520" y="980" width="40" height="40" as="geometry" />
        </mxCell>
        <mxCell id="WFXhQuuayBQoaJ50WYPd-5" value="res" style="rounded=0;whiteSpace=wrap;html=1;fillColor=#CCCCFF;" parent="1" vertex="1">
          <mxGeometry x="560" y="980" width="40" height="40" as="geometry" />
        </mxCell>
        <mxCell id="WFXhQuuayBQoaJ50WYPd-6" value="..." style="rounded=0;whiteSpace=wrap;html=1;" parent="1" vertex="1">
          <mxGeometry x="600" y="980" width="40" height="40" as="geometry" />
        </mxCell>
        <mxCell id="WFXhQuuayBQoaJ50WYPd-7" value="res" style="rounded=0;whiteSpace=wrap;html=1;fillColor=#FFCCE6;" parent="1" vertex="1">
          <mxGeometry x="640" y="980" width="40" height="40" as="geometry" />
        </mxCell>
        <mxCell id="WFXhQuuayBQoaJ50WYPd-8" value="" style="rounded=0;whiteSpace=wrap;html=1;fillColor=#FFD966;" parent="1" vertex="1">
          <mxGeometry x="440" y="1019" width="40" height="40" as="geometry" />
        </mxCell>
        <mxCell id="WFXhQuuayBQoaJ50WYPd-9" value="" style="rounded=0;whiteSpace=wrap;html=1;fillColor=#9999FF;" parent="1" vertex="1">
          <mxGeometry x="480" y="1019" width="40" height="40" as="geometry" />
        </mxCell>
        <mxCell id="WFXhQuuayBQoaJ50WYPd-10" value="" style="rounded=0;whiteSpace=wrap;html=1;fillColor=#FF66B3;" parent="1" vertex="1">
          <mxGeometry x="520" y="1019" width="40" height="40" as="geometry" />
        </mxCell>
        <mxCell id="WFXhQuuayBQoaJ50WYPd-11" value="" style="rounded=0;whiteSpace=wrap;html=1;fillColor=#CCCCFF;" parent="1" vertex="1">
          <mxGeometry x="560" y="1019" width="40" height="40" as="geometry" />
        </mxCell>
        <mxCell id="WFXhQuuayBQoaJ50WYPd-12" value="..." style="rounded=0;whiteSpace=wrap;html=1;" parent="1" vertex="1">
          <mxGeometry x="600" y="1019" width="40" height="40" as="geometry" />
        </mxCell>
        <mxCell id="WFXhQuuayBQoaJ50WYPd-13" value="" style="rounded=0;whiteSpace=wrap;html=1;fillColor=#FFCCE6;" parent="1" vertex="1">
          <mxGeometry x="640" y="1019" width="40" height="40" as="geometry" />
        </mxCell>
        <mxCell id="WFXhQuuayBQoaJ50WYPd-14" value="" style="rounded=0;whiteSpace=wrap;html=1;fillColor=#FFD966;" parent="1" vertex="1">
          <mxGeometry x="440" y="1060" width="40" height="40" as="geometry" />
        </mxCell>
        <mxCell id="WFXhQuuayBQoaJ50WYPd-15" value="" style="rounded=0;whiteSpace=wrap;html=1;fillColor=#9999FF;" parent="1" vertex="1">
          <mxGeometry x="480" y="1060" width="40" height="40" as="geometry" />
        </mxCell>
        <mxCell id="WFXhQuuayBQoaJ50WYPd-16" value="" style="rounded=0;whiteSpace=wrap;html=1;fillColor=#FF66B3;" parent="1" vertex="1">
          <mxGeometry x="520" y="1060" width="40" height="40" as="geometry" />
        </mxCell>
        <mxCell id="WFXhQuuayBQoaJ50WYPd-17" value="" style="rounded=0;whiteSpace=wrap;html=1;fillColor=#CCCCFF;" parent="1" vertex="1">
          <mxGeometry x="560" y="1060" width="40" height="40" as="geometry" />
        </mxCell>
        <mxCell id="WFXhQuuayBQoaJ50WYPd-18" value="..." style="rounded=0;whiteSpace=wrap;html=1;" parent="1" vertex="1">
          <mxGeometry x="600" y="1060" width="40" height="40" as="geometry" />
        </mxCell>
        <mxCell id="WFXhQuuayBQoaJ50WYPd-19" value="" style="rounded=0;whiteSpace=wrap;html=1;fillColor=#FFCCE6;" parent="1" vertex="1">
          <mxGeometry x="640" y="1060" width="40" height="40" as="geometry" />
        </mxCell>
        <mxCell id="WFXhQuuayBQoaJ50WYPd-20" value="" style="rounded=0;whiteSpace=wrap;html=1;fillColor=#FFD966;" parent="1" vertex="1">
          <mxGeometry x="440" y="1100" width="40" height="40" as="geometry" />
        </mxCell>
        <mxCell id="WFXhQuuayBQoaJ50WYPd-21" value="" style="rounded=0;whiteSpace=wrap;html=1;fillColor=#9999FF;" parent="1" vertex="1">
          <mxGeometry x="480" y="1100" width="40" height="40" as="geometry" />
        </mxCell>
        <mxCell id="WFXhQuuayBQoaJ50WYPd-22" value="" style="rounded=0;whiteSpace=wrap;html=1;fillColor=#FF66B3;" parent="1" vertex="1">
          <mxGeometry x="520" y="1100" width="40" height="40" as="geometry" />
        </mxCell>
        <mxCell id="WFXhQuuayBQoaJ50WYPd-23" value="" style="rounded=0;whiteSpace=wrap;html=1;fillColor=#CCCCFF;" parent="1" vertex="1">
          <mxGeometry x="560" y="1100" width="40" height="40" as="geometry" />
        </mxCell>
        <mxCell id="WFXhQuuayBQoaJ50WYPd-24" value="..." style="rounded=0;whiteSpace=wrap;html=1;" parent="1" vertex="1">
          <mxGeometry x="600" y="1100" width="40" height="40" as="geometry" />
        </mxCell>
        <mxCell id="WFXhQuuayBQoaJ50WYPd-25" value="" style="rounded=0;whiteSpace=wrap;html=1;fillColor=#FFCCE6;" parent="1" vertex="1">
          <mxGeometry x="640" y="1100" width="40" height="40" as="geometry" />
        </mxCell>
        <mxCell id="WFXhQuuayBQoaJ50WYPd-26" value="" style="rounded=0;whiteSpace=wrap;html=1;" parent="1" vertex="1">
          <mxGeometry x="430" y="1150" width="260" height="180" as="geometry" />
        </mxCell>
        <mxCell id="WFXhQuuayBQoaJ50WYPd-27" value="res" style="rounded=0;whiteSpace=wrap;html=1;fillColor=#FFD966;" parent="1" vertex="1">
          <mxGeometry x="440" y="1160" width="40" height="40" as="geometry" />
        </mxCell>
        <mxCell id="WFXhQuuayBQoaJ50WYPd-28" value="res" style="rounded=0;whiteSpace=wrap;html=1;fillColor=#9999FF;" parent="1" vertex="1">
          <mxGeometry x="480" y="1160" width="40" height="40" as="geometry" />
        </mxCell>
        <mxCell id="WFXhQuuayBQoaJ50WYPd-29" value="res" style="rounded=0;whiteSpace=wrap;html=1;fillColor=#FF66B3;" parent="1" vertex="1">
          <mxGeometry x="520" y="1160" width="40" height="40" as="geometry" />
        </mxCell>
        <mxCell id="WFXhQuuayBQoaJ50WYPd-30" value="res" style="rounded=0;whiteSpace=wrap;html=1;fillColor=#CCCCFF;" parent="1" vertex="1">
          <mxGeometry x="560" y="1160" width="40" height="40" as="geometry" />
        </mxCell>
        <mxCell id="WFXhQuuayBQoaJ50WYPd-31" value="..." style="rounded=0;whiteSpace=wrap;html=1;" parent="1" vertex="1">
          <mxGeometry x="600" y="1160" width="40" height="40" as="geometry" />
        </mxCell>
        <mxCell id="WFXhQuuayBQoaJ50WYPd-32" value="res" style="rounded=0;whiteSpace=wrap;html=1;fillColor=#FFCCE6;" parent="1" vertex="1">
          <mxGeometry x="640" y="1160" width="40" height="40" as="geometry" />
        </mxCell>
        <mxCell id="WFXhQuuayBQoaJ50WYPd-33" value="" style="rounded=0;whiteSpace=wrap;html=1;fillColor=#FFD966;" parent="1" vertex="1">
          <mxGeometry x="440" y="1199" width="40" height="40" as="geometry" />
        </mxCell>
        <mxCell id="WFXhQuuayBQoaJ50WYPd-34" value="" style="rounded=0;whiteSpace=wrap;html=1;fillColor=#9999FF;" parent="1" vertex="1">
          <mxGeometry x="480" y="1199" width="40" height="40" as="geometry" />
        </mxCell>
        <mxCell id="WFXhQuuayBQoaJ50WYPd-35" value="" style="rounded=0;whiteSpace=wrap;html=1;fillColor=#FF66B3;" parent="1" vertex="1">
          <mxGeometry x="520" y="1199" width="40" height="40" as="geometry" />
        </mxCell>
        <mxCell id="WFXhQuuayBQoaJ50WYPd-36" value="" style="rounded=0;whiteSpace=wrap;html=1;fillColor=#CCCCFF;" parent="1" vertex="1">
          <mxGeometry x="560" y="1199" width="40" height="40" as="geometry" />
        </mxCell>
        <mxCell id="WFXhQuuayBQoaJ50WYPd-37" value="..." style="rounded=0;whiteSpace=wrap;html=1;" parent="1" vertex="1">
          <mxGeometry x="600" y="1199" width="40" height="40" as="geometry" />
        </mxCell>
        <mxCell id="WFXhQuuayBQoaJ50WYPd-38" value="" style="rounded=0;whiteSpace=wrap;html=1;fillColor=#FFCCE6;" parent="1" vertex="1">
          <mxGeometry x="640" y="1199" width="40" height="40" as="geometry" />
        </mxCell>
        <mxCell id="WFXhQuuayBQoaJ50WYPd-39" value="" style="rounded=0;whiteSpace=wrap;html=1;fillColor=#FFD966;" parent="1" vertex="1">
          <mxGeometry x="440" y="1240" width="40" height="40" as="geometry" />
        </mxCell>
        <mxCell id="WFXhQuuayBQoaJ50WYPd-40" value="" style="rounded=0;whiteSpace=wrap;html=1;fillColor=#9999FF;" parent="1" vertex="1">
          <mxGeometry x="480" y="1240" width="40" height="40" as="geometry" />
        </mxCell>
        <mxCell id="WFXhQuuayBQoaJ50WYPd-41" value="" style="rounded=0;whiteSpace=wrap;html=1;fillColor=#FF66B3;" parent="1" vertex="1">
          <mxGeometry x="520" y="1240" width="40" height="40" as="geometry" />
        </mxCell>
        <mxCell id="WFXhQuuayBQoaJ50WYPd-42" value="" style="rounded=0;whiteSpace=wrap;html=1;fillColor=#CCCCFF;" parent="1" vertex="1">
          <mxGeometry x="560" y="1240" width="40" height="40" as="geometry" />
        </mxCell>
        <mxCell id="WFXhQuuayBQoaJ50WYPd-43" value="..." style="rounded=0;whiteSpace=wrap;html=1;" parent="1" vertex="1">
          <mxGeometry x="600" y="1240" width="40" height="40" as="geometry" />
        </mxCell>
        <mxCell id="WFXhQuuayBQoaJ50WYPd-44" value="" style="rounded=0;whiteSpace=wrap;html=1;fillColor=#FFCCE6;" parent="1" vertex="1">
          <mxGeometry x="640" y="1240" width="40" height="40" as="geometry" />
        </mxCell>
        <mxCell id="WFXhQuuayBQoaJ50WYPd-45" value="" style="rounded=0;whiteSpace=wrap;html=1;fillColor=#FFD966;" parent="1" vertex="1">
          <mxGeometry x="440" y="1280" width="40" height="40" as="geometry" />
        </mxCell>
        <mxCell id="WFXhQuuayBQoaJ50WYPd-46" value="" style="rounded=0;whiteSpace=wrap;html=1;fillColor=#9999FF;" parent="1" vertex="1">
          <mxGeometry x="480" y="1280" width="40" height="40" as="geometry" />
        </mxCell>
        <mxCell id="WFXhQuuayBQoaJ50WYPd-47" value="" style="rounded=0;whiteSpace=wrap;html=1;fillColor=#FF66B3;" parent="1" vertex="1">
          <mxGeometry x="520" y="1280" width="40" height="40" as="geometry" />
        </mxCell>
        <mxCell id="WFXhQuuayBQoaJ50WYPd-48" value="" style="rounded=0;whiteSpace=wrap;html=1;fillColor=#CCCCFF;" parent="1" vertex="1">
          <mxGeometry x="560" y="1280" width="40" height="40" as="geometry" />
        </mxCell>
        <mxCell id="WFXhQuuayBQoaJ50WYPd-49" value="..." style="rounded=0;whiteSpace=wrap;html=1;" parent="1" vertex="1">
          <mxGeometry x="600" y="1280" width="40" height="40" as="geometry" />
        </mxCell>
        <mxCell id="WFXhQuuayBQoaJ50WYPd-50" value="" style="rounded=0;whiteSpace=wrap;html=1;fillColor=#FFCCE6;" parent="1" vertex="1">
          <mxGeometry x="640" y="1280" width="40" height="40" as="geometry" />
        </mxCell>
        <mxCell id="WFXhQuuayBQoaJ50WYPd-51" value="" style="rounded=0;whiteSpace=wrap;html=1;" parent="1" vertex="1">
          <mxGeometry x="430" y="1330" width="260" height="180" as="geometry" />
        </mxCell>
        <mxCell id="WFXhQuuayBQoaJ50WYPd-52" value="" style="rounded=0;whiteSpace=wrap;html=1;fillColor=#FFD966;" parent="1" vertex="1">
          <mxGeometry x="440" y="1340" width="40" height="40" as="geometry" />
        </mxCell>
        <mxCell id="WFXhQuuayBQoaJ50WYPd-53" value="" style="rounded=0;whiteSpace=wrap;html=1;fillColor=#9999FF;" parent="1" vertex="1">
          <mxGeometry x="480" y="1340" width="40" height="40" as="geometry" />
        </mxCell>
        <mxCell id="WFXhQuuayBQoaJ50WYPd-54" value="" style="rounded=0;whiteSpace=wrap;html=1;fillColor=#FF66B3;" parent="1" vertex="1">
          <mxGeometry x="520" y="1340" width="40" height="40" as="geometry" />
        </mxCell>
        <mxCell id="WFXhQuuayBQoaJ50WYPd-55" value="" style="rounded=0;whiteSpace=wrap;html=1;fillColor=#CCCCFF;" parent="1" vertex="1">
          <mxGeometry x="560" y="1340" width="40" height="40" as="geometry" />
        </mxCell>
        <mxCell id="WFXhQuuayBQoaJ50WYPd-56" value="..." style="rounded=0;whiteSpace=wrap;html=1;" parent="1" vertex="1">
          <mxGeometry x="600" y="1340" width="40" height="40" as="geometry" />
        </mxCell>
        <mxCell id="WFXhQuuayBQoaJ50WYPd-57" value="" style="rounded=0;whiteSpace=wrap;html=1;fillColor=#FFCCE6;" parent="1" vertex="1">
          <mxGeometry x="640" y="1340" width="40" height="40" as="geometry" />
        </mxCell>
        <mxCell id="WFXhQuuayBQoaJ50WYPd-58" value="" style="rounded=0;whiteSpace=wrap;html=1;fillColor=#FFD966;" parent="1" vertex="1">
          <mxGeometry x="440" y="1379" width="40" height="40" as="geometry" />
        </mxCell>
        <mxCell id="WFXhQuuayBQoaJ50WYPd-59" value="" style="rounded=0;whiteSpace=wrap;html=1;fillColor=#9999FF;" parent="1" vertex="1">
          <mxGeometry x="480" y="1379" width="40" height="40" as="geometry" />
        </mxCell>
        <mxCell id="WFXhQuuayBQoaJ50WYPd-60" value="" style="rounded=0;whiteSpace=wrap;html=1;fillColor=#FF66B3;" parent="1" vertex="1">
          <mxGeometry x="520" y="1379" width="40" height="40" as="geometry" />
        </mxCell>
        <mxCell id="WFXhQuuayBQoaJ50WYPd-61" value="" style="rounded=0;whiteSpace=wrap;html=1;fillColor=#CCCCFF;" parent="1" vertex="1">
          <mxGeometry x="560" y="1379" width="40" height="40" as="geometry" />
        </mxCell>
        <mxCell id="WFXhQuuayBQoaJ50WYPd-62" value="..." style="rounded=0;whiteSpace=wrap;html=1;" parent="1" vertex="1">
          <mxGeometry x="600" y="1379" width="40" height="40" as="geometry" />
        </mxCell>
        <mxCell id="WFXhQuuayBQoaJ50WYPd-63" value="" style="rounded=0;whiteSpace=wrap;html=1;fillColor=#FFCCE6;" parent="1" vertex="1">
          <mxGeometry x="640" y="1379" width="40" height="40" as="geometry" />
        </mxCell>
        <mxCell id="WFXhQuuayBQoaJ50WYPd-64" value="" style="rounded=0;whiteSpace=wrap;html=1;fillColor=#FFD966;" parent="1" vertex="1">
          <mxGeometry x="440" y="1420" width="40" height="40" as="geometry" />
        </mxCell>
        <mxCell id="WFXhQuuayBQoaJ50WYPd-65" value="" style="rounded=0;whiteSpace=wrap;html=1;fillColor=#9999FF;" parent="1" vertex="1">
          <mxGeometry x="480" y="1420" width="40" height="40" as="geometry" />
        </mxCell>
        <mxCell id="WFXhQuuayBQoaJ50WYPd-66" value="" style="rounded=0;whiteSpace=wrap;html=1;fillColor=#FF66B3;" parent="1" vertex="1">
          <mxGeometry x="520" y="1420" width="40" height="40" as="geometry" />
        </mxCell>
        <mxCell id="WFXhQuuayBQoaJ50WYPd-67" value="" style="rounded=0;whiteSpace=wrap;html=1;fillColor=#CCCCFF;" parent="1" vertex="1">
          <mxGeometry x="560" y="1420" width="40" height="40" as="geometry" />
        </mxCell>
        <mxCell id="WFXhQuuayBQoaJ50WYPd-68" value="..." style="rounded=0;whiteSpace=wrap;html=1;" parent="1" vertex="1">
          <mxGeometry x="600" y="1420" width="40" height="40" as="geometry" />
        </mxCell>
        <mxCell id="WFXhQuuayBQoaJ50WYPd-69" value="" style="rounded=0;whiteSpace=wrap;html=1;fillColor=#FFCCE6;" parent="1" vertex="1">
          <mxGeometry x="640" y="1420" width="40" height="40" as="geometry" />
        </mxCell>
        <mxCell id="WFXhQuuayBQoaJ50WYPd-70" value="" style="rounded=0;whiteSpace=wrap;html=1;fillColor=#FFD966;" parent="1" vertex="1">
          <mxGeometry x="440" y="1460" width="40" height="40" as="geometry" />
        </mxCell>
        <mxCell id="WFXhQuuayBQoaJ50WYPd-71" value="" style="rounded=0;whiteSpace=wrap;html=1;fillColor=#9999FF;" parent="1" vertex="1">
          <mxGeometry x="480" y="1460" width="40" height="40" as="geometry" />
        </mxCell>
        <mxCell id="WFXhQuuayBQoaJ50WYPd-72" value="" style="rounded=0;whiteSpace=wrap;html=1;fillColor=#FF66B3;" parent="1" vertex="1">
          <mxGeometry x="520" y="1460" width="40" height="40" as="geometry" />
        </mxCell>
        <mxCell id="WFXhQuuayBQoaJ50WYPd-73" value="" style="rounded=0;whiteSpace=wrap;html=1;fillColor=#CCCCFF;" parent="1" vertex="1">
          <mxGeometry x="560" y="1460" width="40" height="40" as="geometry" />
        </mxCell>
        <mxCell id="WFXhQuuayBQoaJ50WYPd-74" value="..." style="rounded=0;whiteSpace=wrap;html=1;" parent="1" vertex="1">
          <mxGeometry x="600" y="1460" width="40" height="40" as="geometry" />
        </mxCell>
        <mxCell id="WFXhQuuayBQoaJ50WYPd-75" value="" style="rounded=0;whiteSpace=wrap;html=1;fillColor=#FFCCE6;" parent="1" vertex="1">
          <mxGeometry x="640" y="1460" width="40" height="40" as="geometry" />
        </mxCell>
        <mxCell id="WFXhQuuayBQoaJ50WYPd-110" value="1" style="rounded=0;whiteSpace=wrap;html=1;fillColor=#FFD966;" parent="1" vertex="1">
          <mxGeometry x="1520" y="400" width="40" height="40" as="geometry" />
        </mxCell>
        <mxCell id="WFXhQuuayBQoaJ50WYPd-111" value="11" style="rounded=0;whiteSpace=wrap;html=1;fillColor=#FFD966;" parent="1" vertex="1">
          <mxGeometry x="1520" y="440" width="40" height="40" as="geometry" />
        </mxCell>
        <mxCell id="WFXhQuuayBQoaJ50WYPd-112" value="22" style="rounded=0;whiteSpace=wrap;html=1;fillColor=#FFD966;" parent="1" vertex="1">
          <mxGeometry x="1520" y="480" width="40" height="40" as="geometry" />
        </mxCell>
        <mxCell id="WFXhQuuayBQoaJ50WYPd-113" value="33" style="rounded=0;whiteSpace=wrap;html=1;fillColor=#FFD966;" parent="1" vertex="1">
          <mxGeometry x="1520" y="520" width="40" height="40" as="geometry" />
        </mxCell>
        <mxCell id="WFXhQuuayBQoaJ50WYPd-114" value="..." style="rounded=0;whiteSpace=wrap;html=1;fillColor=#FFD966;" parent="1" vertex="1">
          <mxGeometry x="1520" y="560" width="40" height="40" as="geometry" />
        </mxCell>
        <mxCell id="WFXhQuuayBQoaJ50WYPd-115" value="00" style="rounded=0;whiteSpace=wrap;html=1;fillColor=#FFD966;" parent="1" vertex="1">
          <mxGeometry x="1520" y="400" width="40" height="40" as="geometry" />
        </mxCell>
        <mxCell id="WFXhQuuayBQoaJ50WYPd-116" value="55" style="rounded=0;whiteSpace=wrap;html=1;fillColor=#FFD966;" parent="1" vertex="1">
          <mxGeometry x="1520" y="600" width="40" height="40" as="geometry" />
        </mxCell>
        <mxCell id="WFXhQuuayBQoaJ50WYPd-117" value="" style="rounded=0;whiteSpace=wrap;html=1;fillColor=#FFD966;" parent="1" vertex="1">
          <mxGeometry x="440" y="680" width="40" height="40" as="geometry" />
        </mxCell>
        <mxCell id="WFXhQuuayBQoaJ50WYPd-118" value="" style="rounded=0;whiteSpace=wrap;html=1;fillColor=#9999FF;" parent="1" vertex="1">
          <mxGeometry x="480" y="680" width="40" height="40" as="geometry" />
        </mxCell>
        <mxCell id="WFXhQuuayBQoaJ50WYPd-119" value="" style="rounded=0;whiteSpace=wrap;html=1;fillColor=#FF66B3;" parent="1" vertex="1">
          <mxGeometry x="520" y="680" width="40" height="40" as="geometry" />
        </mxCell>
        <mxCell id="WFXhQuuayBQoaJ50WYPd-120" value="" style="rounded=0;whiteSpace=wrap;html=1;fillColor=#CCCCFF;" parent="1" vertex="1">
          <mxGeometry x="560" y="680" width="40" height="40" as="geometry" />
        </mxCell>
        <mxCell id="WFXhQuuayBQoaJ50WYPd-121" value="..." style="rounded=0;whiteSpace=wrap;html=1;" parent="1" vertex="1">
          <mxGeometry x="600" y="680" width="40" height="40" as="geometry" />
        </mxCell>
        <mxCell id="WFXhQuuayBQoaJ50WYPd-122" value="" style="rounded=0;whiteSpace=wrap;html=1;fillColor=#FFCCE6;" parent="1" vertex="1">
          <mxGeometry x="640" y="680" width="40" height="40" as="geometry" />
        </mxCell>
        <mxCell id="WFXhQuuayBQoaJ50WYPd-124" value="00" style="rounded=0;whiteSpace=wrap;html=1;fillColor=#FFCC99;" parent="1" vertex="1">
          <mxGeometry x="1100" y="480" width="20" height="40" as="geometry" />
        </mxCell>
        <mxCell id="WFXhQuuayBQoaJ50WYPd-127" value="00+22" style="rounded=0;whiteSpace=wrap;html=1;fillColor=#FFD966;fontStyle=0" parent="1" vertex="1">
          <mxGeometry x="1121" y="600" width="40" height="40" as="geometry" />
        </mxCell>
        <mxCell id="WFXhQuuayBQoaJ50WYPd-128" value="" style="rounded=0;whiteSpace=wrap;html=1;fillColor=#9999FF;fontStyle=0" parent="1" vertex="1">
          <mxGeometry x="1161" y="600" width="40" height="40" as="geometry" />
        </mxCell>
        <mxCell id="WFXhQuuayBQoaJ50WYPd-129" value="" style="rounded=0;whiteSpace=wrap;html=1;fillColor=#FF66B3;fontStyle=0" parent="1" vertex="1">
          <mxGeometry x="1201" y="600" width="40" height="40" as="geometry" />
        </mxCell>
        <mxCell id="WFXhQuuayBQoaJ50WYPd-130" value="" style="rounded=0;whiteSpace=wrap;html=1;fillColor=#CCCCFF;fontStyle=0" parent="1" vertex="1">
          <mxGeometry x="1241" y="600" width="40" height="40" as="geometry" />
        </mxCell>
        <mxCell id="WFXhQuuayBQoaJ50WYPd-149" style="edgeStyle=orthogonalEdgeStyle;rounded=0;orthogonalLoop=1;jettySize=auto;html=1;entryX=0;entryY=0.5;entryDx=0;entryDy=0;exitX=0;exitY=0.5;exitDx=0;exitDy=0;" parent="1" source="WFXhQuuayBQoaJ50WYPd-132" target="WFXhQuuayBQoaJ50WYPd-136" edge="1">
          <mxGeometry relative="1" as="geometry">
            <Array as="points">
              <mxPoint x="1080" y="540" />
              <mxPoint x="1080" y="660" />
            </Array>
          </mxGeometry>
        </mxCell>
        <mxCell id="WFXhQuuayBQoaJ50WYPd-132" value="01" style="rounded=0;whiteSpace=wrap;html=1;fillColor=#FFCC99;" parent="1" vertex="1">
          <mxGeometry x="1100" y="520" width="20" height="40" as="geometry" />
        </mxCell>
        <mxCell id="WFXhQuuayBQoaJ50WYPd-136" value="11+33" style="rounded=0;whiteSpace=wrap;html=1;fillColor=#FFD966;fontStyle=0" parent="1" vertex="1">
          <mxGeometry x="1121" y="640" width="40" height="40" as="geometry" />
        </mxCell>
        <mxCell id="WFXhQuuayBQoaJ50WYPd-137" value="" style="rounded=0;whiteSpace=wrap;html=1;fillColor=#9999FF;fontStyle=0" parent="1" vertex="1">
          <mxGeometry x="1161" y="640" width="40" height="40" as="geometry" />
        </mxCell>
        <mxCell id="WFXhQuuayBQoaJ50WYPd-138" value="" style="rounded=0;whiteSpace=wrap;html=1;fillColor=#FF66B3;fontStyle=0" parent="1" vertex="1">
          <mxGeometry x="1201" y="640" width="40" height="40" as="geometry" />
        </mxCell>
        <mxCell id="WFXhQuuayBQoaJ50WYPd-139" value="" style="rounded=0;whiteSpace=wrap;html=1;fillColor=#CCCCFF;fontStyle=0" parent="1" vertex="1">
          <mxGeometry x="1241" y="640" width="40" height="40" as="geometry" />
        </mxCell>
        <mxCell id="WFXhQuuayBQoaJ50WYPd-148" value="" style="group" parent="1" vertex="1" connectable="0">
          <mxGeometry x="347" y="1600" width="480" height="640" as="geometry" />
        </mxCell>
        <mxCell id="JrdyqNXi1djWCPfoIWIr-283" value="256*4" style="rounded=0;whiteSpace=wrap;html=1;" parent="WFXhQuuayBQoaJ50WYPd-148" vertex="1">
          <mxGeometry width="240" height="320" as="geometry" />
        </mxCell>
        <mxCell id="JrdyqNXi1djWCPfoIWIr-328" value="" style="rounded=0;whiteSpace=wrap;html=1;" parent="WFXhQuuayBQoaJ50WYPd-148" vertex="1">
          <mxGeometry width="40" height="40" as="geometry" />
        </mxCell>
        <mxCell id="JrdyqNXi1djWCPfoIWIr-329" value="" style="rounded=0;whiteSpace=wrap;html=1;" parent="WFXhQuuayBQoaJ50WYPd-148" vertex="1">
          <mxGeometry y="40" width="40" height="40" as="geometry" />
        </mxCell>
        <mxCell id="JrdyqNXi1djWCPfoIWIr-330" value="" style="rounded=0;whiteSpace=wrap;html=1;" parent="WFXhQuuayBQoaJ50WYPd-148" vertex="1">
          <mxGeometry y="80" width="40" height="40" as="geometry" />
        </mxCell>
        <mxCell id="JrdyqNXi1djWCPfoIWIr-331" value="" style="rounded=0;whiteSpace=wrap;html=1;" parent="WFXhQuuayBQoaJ50WYPd-148" vertex="1">
          <mxGeometry y="120" width="40" height="40" as="geometry" />
        </mxCell>
        <mxCell id="JrdyqNXi1djWCPfoIWIr-332" value="" style="rounded=0;whiteSpace=wrap;html=1;" parent="WFXhQuuayBQoaJ50WYPd-148" vertex="1">
          <mxGeometry y="160" width="40" height="40" as="geometry" />
        </mxCell>
        <mxCell id="JrdyqNXi1djWCPfoIWIr-333" value="" style="rounded=0;whiteSpace=wrap;html=1;" parent="WFXhQuuayBQoaJ50WYPd-148" vertex="1">
          <mxGeometry y="200" width="40" height="40" as="geometry" />
        </mxCell>
        <mxCell id="JrdyqNXi1djWCPfoIWIr-334" value="" style="rounded=0;whiteSpace=wrap;html=1;" parent="WFXhQuuayBQoaJ50WYPd-148" vertex="1">
          <mxGeometry x="40" width="40" height="80" as="geometry" />
        </mxCell>
        <mxCell id="JrdyqNXi1djWCPfoIWIr-336" value="" style="rounded=0;whiteSpace=wrap;html=1;" parent="WFXhQuuayBQoaJ50WYPd-148" vertex="1">
          <mxGeometry x="40" y="80" width="40" height="80" as="geometry" />
        </mxCell>
        <mxCell id="JrdyqNXi1djWCPfoIWIr-337" value="" style="rounded=0;whiteSpace=wrap;html=1;" parent="WFXhQuuayBQoaJ50WYPd-148" vertex="1">
          <mxGeometry x="40" y="160" width="40" height="80" as="geometry" />
        </mxCell>
        <mxCell id="JrdyqNXi1djWCPfoIWIr-338" value="" style="rounded=0;whiteSpace=wrap;html=1;" parent="WFXhQuuayBQoaJ50WYPd-148" vertex="1">
          <mxGeometry y="240" width="40" height="40" as="geometry" />
        </mxCell>
        <mxCell id="JrdyqNXi1djWCPfoIWIr-339" value="" style="rounded=0;whiteSpace=wrap;html=1;" parent="WFXhQuuayBQoaJ50WYPd-148" vertex="1">
          <mxGeometry y="280" width="40" height="40" as="geometry" />
        </mxCell>
        <mxCell id="JrdyqNXi1djWCPfoIWIr-340" value="" style="rounded=0;whiteSpace=wrap;html=1;" parent="WFXhQuuayBQoaJ50WYPd-148" vertex="1">
          <mxGeometry x="40" y="240" width="40" height="80" as="geometry" />
        </mxCell>
        <mxCell id="JrdyqNXi1djWCPfoIWIr-341" value="" style="rounded=0;whiteSpace=wrap;html=1;" parent="WFXhQuuayBQoaJ50WYPd-148" vertex="1">
          <mxGeometry x="80" y="160" width="40" height="160" as="geometry" />
        </mxCell>
        <mxCell id="JrdyqNXi1djWCPfoIWIr-342" value="" style="rounded=0;whiteSpace=wrap;html=1;" parent="WFXhQuuayBQoaJ50WYPd-148" vertex="1">
          <mxGeometry x="80" width="40" height="160" as="geometry" />
        </mxCell>
        <mxCell id="JrdyqNXi1djWCPfoIWIr-343" value="" style="rounded=0;whiteSpace=wrap;html=1;" parent="WFXhQuuayBQoaJ50WYPd-148" vertex="1">
          <mxGeometry x="120" width="40" height="320" as="geometry" />
        </mxCell>
        <mxCell id="JrdyqNXi1djWCPfoIWIr-347" value="256*4" style="rounded=0;whiteSpace=wrap;html=1;" parent="WFXhQuuayBQoaJ50WYPd-148" vertex="1">
          <mxGeometry y="320" width="240" height="320" as="geometry" />
        </mxCell>
        <mxCell id="JrdyqNXi1djWCPfoIWIr-348" value="" style="rounded=0;whiteSpace=wrap;html=1;" parent="WFXhQuuayBQoaJ50WYPd-148" vertex="1">
          <mxGeometry y="320" width="40" height="40" as="geometry" />
        </mxCell>
        <mxCell id="JrdyqNXi1djWCPfoIWIr-349" value="" style="rounded=0;whiteSpace=wrap;html=1;" parent="WFXhQuuayBQoaJ50WYPd-148" vertex="1">
          <mxGeometry y="360" width="40" height="40" as="geometry" />
        </mxCell>
        <mxCell id="JrdyqNXi1djWCPfoIWIr-350" value="" style="rounded=0;whiteSpace=wrap;html=1;" parent="WFXhQuuayBQoaJ50WYPd-148" vertex="1">
          <mxGeometry y="400" width="40" height="40" as="geometry" />
        </mxCell>
        <mxCell id="JrdyqNXi1djWCPfoIWIr-351" value="" style="rounded=0;whiteSpace=wrap;html=1;" parent="WFXhQuuayBQoaJ50WYPd-148" vertex="1">
          <mxGeometry y="440" width="40" height="40" as="geometry" />
        </mxCell>
        <mxCell id="JrdyqNXi1djWCPfoIWIr-352" value="" style="rounded=0;whiteSpace=wrap;html=1;" parent="WFXhQuuayBQoaJ50WYPd-148" vertex="1">
          <mxGeometry y="480" width="40" height="40" as="geometry" />
        </mxCell>
        <mxCell id="JrdyqNXi1djWCPfoIWIr-353" value="" style="rounded=0;whiteSpace=wrap;html=1;" parent="WFXhQuuayBQoaJ50WYPd-148" vertex="1">
          <mxGeometry y="520" width="40" height="40" as="geometry" />
        </mxCell>
        <mxCell id="JrdyqNXi1djWCPfoIWIr-354" value="" style="rounded=0;whiteSpace=wrap;html=1;" parent="WFXhQuuayBQoaJ50WYPd-148" vertex="1">
          <mxGeometry x="40" y="320" width="40" height="80" as="geometry" />
        </mxCell>
        <mxCell id="JrdyqNXi1djWCPfoIWIr-355" value="" style="rounded=0;whiteSpace=wrap;html=1;" parent="WFXhQuuayBQoaJ50WYPd-148" vertex="1">
          <mxGeometry x="40" y="400" width="40" height="80" as="geometry" />
        </mxCell>
        <mxCell id="JrdyqNXi1djWCPfoIWIr-356" value="" style="rounded=0;whiteSpace=wrap;html=1;" parent="WFXhQuuayBQoaJ50WYPd-148" vertex="1">
          <mxGeometry x="40" y="480" width="40" height="80" as="geometry" />
        </mxCell>
        <mxCell id="JrdyqNXi1djWCPfoIWIr-357" value="" style="rounded=0;whiteSpace=wrap;html=1;" parent="WFXhQuuayBQoaJ50WYPd-148" vertex="1">
          <mxGeometry y="560" width="40" height="40" as="geometry" />
        </mxCell>
        <mxCell id="JrdyqNXi1djWCPfoIWIr-358" value="" style="rounded=0;whiteSpace=wrap;html=1;" parent="WFXhQuuayBQoaJ50WYPd-148" vertex="1">
          <mxGeometry y="600" width="40" height="40" as="geometry" />
        </mxCell>
        <mxCell id="JrdyqNXi1djWCPfoIWIr-359" value="" style="rounded=0;whiteSpace=wrap;html=1;" parent="WFXhQuuayBQoaJ50WYPd-148" vertex="1">
          <mxGeometry x="40" y="560" width="40" height="80" as="geometry" />
        </mxCell>
        <mxCell id="JrdyqNXi1djWCPfoIWIr-360" value="" style="rounded=0;whiteSpace=wrap;html=1;" parent="WFXhQuuayBQoaJ50WYPd-148" vertex="1">
          <mxGeometry x="80" y="480" width="40" height="160" as="geometry" />
        </mxCell>
        <mxCell id="JrdyqNXi1djWCPfoIWIr-361" value="" style="rounded=0;whiteSpace=wrap;html=1;" parent="WFXhQuuayBQoaJ50WYPd-148" vertex="1">
          <mxGeometry x="80" y="320" width="40" height="160" as="geometry" />
        </mxCell>
        <mxCell id="JrdyqNXi1djWCPfoIWIr-362" value="" style="rounded=0;whiteSpace=wrap;html=1;" parent="WFXhQuuayBQoaJ50WYPd-148" vertex="1">
          <mxGeometry x="120" y="320" width="40" height="320" as="geometry" />
        </mxCell>
        <mxCell id="WFXhQuuayBQoaJ50WYPd-77" value="256*4" style="rounded=0;whiteSpace=wrap;html=1;" parent="WFXhQuuayBQoaJ50WYPd-148" vertex="1">
          <mxGeometry x="240" width="240" height="320" as="geometry" />
        </mxCell>
        <mxCell id="WFXhQuuayBQoaJ50WYPd-78" value="" style="rounded=0;whiteSpace=wrap;html=1;" parent="WFXhQuuayBQoaJ50WYPd-148" vertex="1">
          <mxGeometry x="240" width="40" height="40" as="geometry" />
        </mxCell>
        <mxCell id="WFXhQuuayBQoaJ50WYPd-79" value="" style="rounded=0;whiteSpace=wrap;html=1;" parent="WFXhQuuayBQoaJ50WYPd-148" vertex="1">
          <mxGeometry x="240" y="40" width="40" height="40" as="geometry" />
        </mxCell>
        <mxCell id="WFXhQuuayBQoaJ50WYPd-80" value="" style="rounded=0;whiteSpace=wrap;html=1;" parent="WFXhQuuayBQoaJ50WYPd-148" vertex="1">
          <mxGeometry x="240" y="80" width="40" height="40" as="geometry" />
        </mxCell>
        <mxCell id="WFXhQuuayBQoaJ50WYPd-81" value="" style="rounded=0;whiteSpace=wrap;html=1;" parent="WFXhQuuayBQoaJ50WYPd-148" vertex="1">
          <mxGeometry x="240" y="120" width="40" height="40" as="geometry" />
        </mxCell>
        <mxCell id="WFXhQuuayBQoaJ50WYPd-82" value="" style="rounded=0;whiteSpace=wrap;html=1;" parent="WFXhQuuayBQoaJ50WYPd-148" vertex="1">
          <mxGeometry x="240" y="160" width="40" height="40" as="geometry" />
        </mxCell>
        <mxCell id="WFXhQuuayBQoaJ50WYPd-83" value="" style="rounded=0;whiteSpace=wrap;html=1;" parent="WFXhQuuayBQoaJ50WYPd-148" vertex="1">
          <mxGeometry x="240" y="200" width="40" height="40" as="geometry" />
        </mxCell>
        <mxCell id="WFXhQuuayBQoaJ50WYPd-84" value="" style="rounded=0;whiteSpace=wrap;html=1;" parent="WFXhQuuayBQoaJ50WYPd-148" vertex="1">
          <mxGeometry x="280" width="40" height="80" as="geometry" />
        </mxCell>
        <mxCell id="WFXhQuuayBQoaJ50WYPd-85" value="" style="rounded=0;whiteSpace=wrap;html=1;" parent="WFXhQuuayBQoaJ50WYPd-148" vertex="1">
          <mxGeometry x="280" y="80" width="40" height="80" as="geometry" />
        </mxCell>
        <mxCell id="WFXhQuuayBQoaJ50WYPd-86" value="" style="rounded=0;whiteSpace=wrap;html=1;" parent="WFXhQuuayBQoaJ50WYPd-148" vertex="1">
          <mxGeometry x="280" y="160" width="40" height="80" as="geometry" />
        </mxCell>
        <mxCell id="WFXhQuuayBQoaJ50WYPd-87" value="" style="rounded=0;whiteSpace=wrap;html=1;" parent="WFXhQuuayBQoaJ50WYPd-148" vertex="1">
          <mxGeometry x="240" y="240" width="40" height="40" as="geometry" />
        </mxCell>
        <mxCell id="WFXhQuuayBQoaJ50WYPd-88" value="" style="rounded=0;whiteSpace=wrap;html=1;" parent="WFXhQuuayBQoaJ50WYPd-148" vertex="1">
          <mxGeometry x="240" y="280" width="40" height="40" as="geometry" />
        </mxCell>
        <mxCell id="WFXhQuuayBQoaJ50WYPd-89" value="" style="rounded=0;whiteSpace=wrap;html=1;" parent="WFXhQuuayBQoaJ50WYPd-148" vertex="1">
          <mxGeometry x="280" y="240" width="40" height="80" as="geometry" />
        </mxCell>
        <mxCell id="WFXhQuuayBQoaJ50WYPd-90" value="" style="rounded=0;whiteSpace=wrap;html=1;" parent="WFXhQuuayBQoaJ50WYPd-148" vertex="1">
          <mxGeometry x="320" y="160" width="40" height="160" as="geometry" />
        </mxCell>
        <mxCell id="WFXhQuuayBQoaJ50WYPd-91" value="" style="rounded=0;whiteSpace=wrap;html=1;" parent="WFXhQuuayBQoaJ50WYPd-148" vertex="1">
          <mxGeometry x="320" width="40" height="160" as="geometry" />
        </mxCell>
        <mxCell id="WFXhQuuayBQoaJ50WYPd-92" value="" style="rounded=0;whiteSpace=wrap;html=1;" parent="WFXhQuuayBQoaJ50WYPd-148" vertex="1">
          <mxGeometry x="360" width="40" height="320" as="geometry" />
        </mxCell>
        <mxCell id="WFXhQuuayBQoaJ50WYPd-93" value="256*4" style="rounded=0;whiteSpace=wrap;html=1;" parent="WFXhQuuayBQoaJ50WYPd-148" vertex="1">
          <mxGeometry x="240" y="320" width="240" height="320" as="geometry" />
        </mxCell>
        <mxCell id="WFXhQuuayBQoaJ50WYPd-94" value="" style="rounded=0;whiteSpace=wrap;html=1;" parent="WFXhQuuayBQoaJ50WYPd-148" vertex="1">
          <mxGeometry x="240" y="320" width="40" height="40" as="geometry" />
        </mxCell>
        <mxCell id="WFXhQuuayBQoaJ50WYPd-95" value="" style="rounded=0;whiteSpace=wrap;html=1;" parent="WFXhQuuayBQoaJ50WYPd-148" vertex="1">
          <mxGeometry x="240" y="360" width="40" height="40" as="geometry" />
        </mxCell>
        <mxCell id="WFXhQuuayBQoaJ50WYPd-96" value="" style="rounded=0;whiteSpace=wrap;html=1;" parent="WFXhQuuayBQoaJ50WYPd-148" vertex="1">
          <mxGeometry x="240" y="400" width="40" height="40" as="geometry" />
        </mxCell>
        <mxCell id="WFXhQuuayBQoaJ50WYPd-97" value="" style="rounded=0;whiteSpace=wrap;html=1;" parent="WFXhQuuayBQoaJ50WYPd-148" vertex="1">
          <mxGeometry x="240" y="440" width="40" height="40" as="geometry" />
        </mxCell>
        <mxCell id="WFXhQuuayBQoaJ50WYPd-98" value="" style="rounded=0;whiteSpace=wrap;html=1;" parent="WFXhQuuayBQoaJ50WYPd-148" vertex="1">
          <mxGeometry x="240" y="480" width="40" height="40" as="geometry" />
        </mxCell>
        <mxCell id="WFXhQuuayBQoaJ50WYPd-99" value="" style="rounded=0;whiteSpace=wrap;html=1;" parent="WFXhQuuayBQoaJ50WYPd-148" vertex="1">
          <mxGeometry x="240" y="520" width="40" height="40" as="geometry" />
        </mxCell>
        <mxCell id="WFXhQuuayBQoaJ50WYPd-100" value="" style="rounded=0;whiteSpace=wrap;html=1;" parent="WFXhQuuayBQoaJ50WYPd-148" vertex="1">
          <mxGeometry x="280" y="320" width="40" height="80" as="geometry" />
        </mxCell>
        <mxCell id="WFXhQuuayBQoaJ50WYPd-101" value="" style="rounded=0;whiteSpace=wrap;html=1;" parent="WFXhQuuayBQoaJ50WYPd-148" vertex="1">
          <mxGeometry x="280" y="400" width="40" height="80" as="geometry" />
        </mxCell>
        <mxCell id="WFXhQuuayBQoaJ50WYPd-102" value="" style="rounded=0;whiteSpace=wrap;html=1;" parent="WFXhQuuayBQoaJ50WYPd-148" vertex="1">
          <mxGeometry x="280" y="480" width="40" height="80" as="geometry" />
        </mxCell>
        <mxCell id="WFXhQuuayBQoaJ50WYPd-103" value="" style="rounded=0;whiteSpace=wrap;html=1;" parent="WFXhQuuayBQoaJ50WYPd-148" vertex="1">
          <mxGeometry x="240" y="560" width="40" height="40" as="geometry" />
        </mxCell>
        <mxCell id="WFXhQuuayBQoaJ50WYPd-104" value="" style="rounded=0;whiteSpace=wrap;html=1;" parent="WFXhQuuayBQoaJ50WYPd-148" vertex="1">
          <mxGeometry x="240" y="600" width="40" height="40" as="geometry" />
        </mxCell>
        <mxCell id="WFXhQuuayBQoaJ50WYPd-105" value="" style="rounded=0;whiteSpace=wrap;html=1;" parent="WFXhQuuayBQoaJ50WYPd-148" vertex="1">
          <mxGeometry x="280" y="560" width="40" height="80" as="geometry" />
        </mxCell>
        <mxCell id="WFXhQuuayBQoaJ50WYPd-106" value="" style="rounded=0;whiteSpace=wrap;html=1;" parent="WFXhQuuayBQoaJ50WYPd-148" vertex="1">
          <mxGeometry x="320" y="480" width="40" height="160" as="geometry" />
        </mxCell>
        <mxCell id="WFXhQuuayBQoaJ50WYPd-107" value="" style="rounded=0;whiteSpace=wrap;html=1;" parent="WFXhQuuayBQoaJ50WYPd-148" vertex="1">
          <mxGeometry x="320" y="320" width="40" height="160" as="geometry" />
        </mxCell>
        <mxCell id="WFXhQuuayBQoaJ50WYPd-108" value="" style="rounded=0;whiteSpace=wrap;html=1;" parent="WFXhQuuayBQoaJ50WYPd-148" vertex="1">
          <mxGeometry x="360" y="320" width="40" height="320" as="geometry" />
        </mxCell>
        <mxCell id="WFXhQuuayBQoaJ50WYPd-150" value="00" style="rounded=0;whiteSpace=wrap;html=1;fillColor=#FFCC99;" parent="1" vertex="1">
          <mxGeometry x="1060" y="400" width="20" height="80" as="geometry" />
        </mxCell>
        <mxCell id="WFXhQuuayBQoaJ50WYPd-131" style="edgeStyle=orthogonalEdgeStyle;rounded=0;orthogonalLoop=1;jettySize=auto;html=1;entryX=0;entryY=0.5;entryDx=0;entryDy=0;exitX=0;exitY=0.5;exitDx=0;exitDy=0;targetPerimeterSpacing=-1;jumpStyle=line;" parent="1" source="WFXhQuuayBQoaJ50WYPd-124" target="WFXhQuuayBQoaJ50WYPd-127" edge="1">
          <mxGeometry relative="1" as="geometry">
            <Array as="points">
              <mxPoint x="1040" y="500" />
              <mxPoint x="1040" y="620" />
            </Array>
          </mxGeometry>
        </mxCell>
        <mxCell id="aLZQUD1DjnwFZ4S-cesx-50" style="rounded=0;orthogonalLoop=1;jettySize=auto;html=1;entryX=0.5;entryY=0;entryDx=0;entryDy=0;" edge="1" parent="1" source="aLZQUD1DjnwFZ4S-cesx-8" target="aLZQUD1DjnwFZ4S-cesx-42">
          <mxGeometry relative="1" as="geometry" />
        </mxCell>
        <mxCell id="aLZQUD1DjnwFZ4S-cesx-8" value="" style="rounded=0;whiteSpace=wrap;html=1;fillColor=#FFD966;" vertex="1" parent="1">
          <mxGeometry x="1080" y="1470" width="20" height="10" as="geometry" />
        </mxCell>
        <mxCell id="aLZQUD1DjnwFZ4S-cesx-9" value="" style="rounded=0;whiteSpace=wrap;html=1;fillColor=#9999FF;" vertex="1" parent="1">
          <mxGeometry x="1100" y="1470" width="20" height="10" as="geometry" />
        </mxCell>
        <mxCell id="aLZQUD1DjnwFZ4S-cesx-10" value="" style="rounded=0;whiteSpace=wrap;html=1;fillColor=#FF66B3;" vertex="1" parent="1">
          <mxGeometry x="1120" y="1470" width="20" height="10" as="geometry" />
        </mxCell>
        <mxCell id="aLZQUD1DjnwFZ4S-cesx-11" value="" style="rounded=0;whiteSpace=wrap;html=1;fillColor=#CCCCFF;" vertex="1" parent="1">
          <mxGeometry x="1140" y="1470" width="20" height="10" as="geometry" />
        </mxCell>
        <mxCell id="aLZQUD1DjnwFZ4S-cesx-96" style="edgeStyle=none;rounded=0;orthogonalLoop=1;jettySize=auto;html=1;entryX=0.5;entryY=0;entryDx=0;entryDy=0;" edge="1" parent="1" source="aLZQUD1DjnwFZ4S-cesx-30" target="aLZQUD1DjnwFZ4S-cesx-80">
          <mxGeometry relative="1" as="geometry" />
        </mxCell>
        <mxCell id="aLZQUD1DjnwFZ4S-cesx-30" value="" style="rounded=0;whiteSpace=wrap;html=1;fillColor=#FFD966;" vertex="1" parent="1">
          <mxGeometry x="1161" y="1470" width="20" height="10" as="geometry" />
        </mxCell>
        <mxCell id="aLZQUD1DjnwFZ4S-cesx-31" value="" style="rounded=0;whiteSpace=wrap;html=1;fillColor=#9999FF;" vertex="1" parent="1">
          <mxGeometry x="1181" y="1470" width="20" height="10" as="geometry" />
        </mxCell>
        <mxCell id="aLZQUD1DjnwFZ4S-cesx-32" value="" style="rounded=0;whiteSpace=wrap;html=1;fillColor=#FF66B3;" vertex="1" parent="1">
          <mxGeometry x="1201" y="1470" width="20" height="10" as="geometry" />
        </mxCell>
        <mxCell id="aLZQUD1DjnwFZ4S-cesx-33" value="" style="rounded=0;whiteSpace=wrap;html=1;fillColor=#CCCCFF;" vertex="1" parent="1">
          <mxGeometry x="1221" y="1470" width="20" height="10" as="geometry" />
        </mxCell>
        <mxCell id="aLZQUD1DjnwFZ4S-cesx-63" style="edgeStyle=none;rounded=0;orthogonalLoop=1;jettySize=auto;html=1;entryX=0.5;entryY=0;entryDx=0;entryDy=0;" edge="1" parent="1" source="aLZQUD1DjnwFZ4S-cesx-42" target="aLZQUD1DjnwFZ4S-cesx-59">
          <mxGeometry relative="1" as="geometry" />
        </mxCell>
        <mxCell id="aLZQUD1DjnwFZ4S-cesx-42" value="0" style="ellipse;whiteSpace=wrap;html=1;aspect=fixed;" vertex="1" parent="1">
          <mxGeometry x="1080" y="1500" width="20" height="20" as="geometry" />
        </mxCell>
        <mxCell id="aLZQUD1DjnwFZ4S-cesx-43" value="1" style="ellipse;whiteSpace=wrap;html=1;aspect=fixed;" vertex="1" parent="1">
          <mxGeometry x="1100" y="1520" width="20" height="20" as="geometry" />
        </mxCell>
        <mxCell id="aLZQUD1DjnwFZ4S-cesx-44" value="2" style="ellipse;whiteSpace=wrap;html=1;aspect=fixed;" vertex="1" parent="1">
          <mxGeometry x="1120" y="1540" width="20" height="20" as="geometry" />
        </mxCell>
        <mxCell id="aLZQUD1DjnwFZ4S-cesx-45" value="3" style="ellipse;whiteSpace=wrap;html=1;aspect=fixed;" vertex="1" parent="1">
          <mxGeometry x="1140" y="1560" width="20" height="20" as="geometry" />
        </mxCell>
        <mxCell id="aLZQUD1DjnwFZ4S-cesx-100" style="edgeStyle=none;rounded=0;orthogonalLoop=1;jettySize=auto;html=1;" edge="1" parent="1" source="aLZQUD1DjnwFZ4S-cesx-59" target="aLZQUD1DjnwFZ4S-cesx-99">
          <mxGeometry relative="1" as="geometry" />
        </mxCell>
        <mxCell id="aLZQUD1DjnwFZ4S-cesx-59" value="" style="rounded=0;whiteSpace=wrap;html=1;fillColor=#FFD966;" vertex="1" parent="1">
          <mxGeometry x="1080" y="1710" width="20" height="10" as="geometry" />
        </mxCell>
        <mxCell id="aLZQUD1DjnwFZ4S-cesx-60" value="" style="rounded=0;whiteSpace=wrap;html=1;fillColor=#9999FF;" vertex="1" parent="1">
          <mxGeometry x="1100" y="1710" width="20" height="10" as="geometry" />
        </mxCell>
        <mxCell id="aLZQUD1DjnwFZ4S-cesx-61" value="" style="rounded=0;whiteSpace=wrap;html=1;fillColor=#FF66B3;" vertex="1" parent="1">
          <mxGeometry x="1120" y="1710" width="20" height="10" as="geometry" />
        </mxCell>
        <mxCell id="aLZQUD1DjnwFZ4S-cesx-62" value="" style="rounded=0;whiteSpace=wrap;html=1;fillColor=#CCCCFF;" vertex="1" parent="1">
          <mxGeometry x="1140" y="1710" width="20" height="10" as="geometry" />
        </mxCell>
        <mxCell id="aLZQUD1DjnwFZ4S-cesx-87" style="edgeStyle=none;rounded=0;orthogonalLoop=1;jettySize=auto;html=1;entryX=1;entryY=0;entryDx=0;entryDy=0;exitX=0.389;exitY=1.282;exitDx=0;exitDy=0;exitPerimeter=0;" edge="1" parent="1" source="aLZQUD1DjnwFZ4S-cesx-65" target="aLZQUD1DjnwFZ4S-cesx-42">
          <mxGeometry relative="1" as="geometry" />
        </mxCell>
        <mxCell id="aLZQUD1DjnwFZ4S-cesx-65" value="" style="rounded=0;whiteSpace=wrap;html=1;fillColor=#FFD966;" vertex="1" parent="1">
          <mxGeometry x="1240" y="1470" width="20" height="10" as="geometry" />
        </mxCell>
        <mxCell id="aLZQUD1DjnwFZ4S-cesx-67" value="" style="rounded=0;whiteSpace=wrap;html=1;fillColor=#9999FF;" vertex="1" parent="1">
          <mxGeometry x="1260" y="1470" width="20" height="10" as="geometry" />
        </mxCell>
        <mxCell id="aLZQUD1DjnwFZ4S-cesx-69" value="" style="rounded=0;whiteSpace=wrap;html=1;fillColor=#FF66B3;" vertex="1" parent="1">
          <mxGeometry x="1280" y="1470" width="20" height="10" as="geometry" />
        </mxCell>
        <mxCell id="aLZQUD1DjnwFZ4S-cesx-71" value="" style="rounded=0;whiteSpace=wrap;html=1;fillColor=#CCCCFF;" vertex="1" parent="1">
          <mxGeometry x="1300" y="1470" width="20" height="10" as="geometry" />
        </mxCell>
        <mxCell id="aLZQUD1DjnwFZ4S-cesx-97" style="edgeStyle=none;rounded=0;orthogonalLoop=1;jettySize=auto;html=1;entryX=1;entryY=0;entryDx=0;entryDy=0;" edge="1" parent="1" source="aLZQUD1DjnwFZ4S-cesx-73" target="aLZQUD1DjnwFZ4S-cesx-80">
          <mxGeometry relative="1" as="geometry" />
        </mxCell>
        <mxCell id="aLZQUD1DjnwFZ4S-cesx-73" value="" style="rounded=0;whiteSpace=wrap;html=1;fillColor=#FFD966;" vertex="1" parent="1">
          <mxGeometry x="1321" y="1470" width="20" height="10" as="geometry" />
        </mxCell>
        <mxCell id="aLZQUD1DjnwFZ4S-cesx-75" value="" style="rounded=0;whiteSpace=wrap;html=1;fillColor=#9999FF;" vertex="1" parent="1">
          <mxGeometry x="1341" y="1470" width="20" height="10" as="geometry" />
        </mxCell>
        <mxCell id="aLZQUD1DjnwFZ4S-cesx-77" value="" style="rounded=0;whiteSpace=wrap;html=1;fillColor=#FF66B3;" vertex="1" parent="1">
          <mxGeometry x="1361" y="1470" width="20" height="10" as="geometry" />
        </mxCell>
        <mxCell id="aLZQUD1DjnwFZ4S-cesx-79" value="" style="rounded=0;whiteSpace=wrap;html=1;fillColor=#CCCCFF;" vertex="1" parent="1">
          <mxGeometry x="1381" y="1470" width="20" height="10" as="geometry" />
        </mxCell>
        <mxCell id="aLZQUD1DjnwFZ4S-cesx-98" style="edgeStyle=none;rounded=0;orthogonalLoop=1;jettySize=auto;html=1;entryX=0.5;entryY=0;entryDx=0;entryDy=0;" edge="1" parent="1" source="aLZQUD1DjnwFZ4S-cesx-80" target="aLZQUD1DjnwFZ4S-cesx-88">
          <mxGeometry relative="1" as="geometry" />
        </mxCell>
        <mxCell id="aLZQUD1DjnwFZ4S-cesx-80" value="4" style="ellipse;whiteSpace=wrap;html=1;aspect=fixed;" vertex="1" parent="1">
          <mxGeometry x="1160" y="1580" width="20" height="20" as="geometry" />
        </mxCell>
        <mxCell id="aLZQUD1DjnwFZ4S-cesx-81" value="5" style="ellipse;whiteSpace=wrap;html=1;aspect=fixed;" vertex="1" parent="1">
          <mxGeometry x="1180" y="1600" width="20" height="20" as="geometry" />
        </mxCell>
        <mxCell id="aLZQUD1DjnwFZ4S-cesx-82" value="6" style="ellipse;whiteSpace=wrap;html=1;aspect=fixed;" vertex="1" parent="1">
          <mxGeometry x="1200" y="1620" width="20" height="20" as="geometry" />
        </mxCell>
        <mxCell id="aLZQUD1DjnwFZ4S-cesx-83" value="7" style="ellipse;whiteSpace=wrap;html=1;aspect=fixed;" vertex="1" parent="1">
          <mxGeometry x="1220" y="1640" width="20" height="20" as="geometry" />
        </mxCell>
        <mxCell id="aLZQUD1DjnwFZ4S-cesx-101" style="edgeStyle=none;rounded=0;orthogonalLoop=1;jettySize=auto;html=1;entryX=1;entryY=0.5;entryDx=0;entryDy=0;" edge="1" parent="1" source="aLZQUD1DjnwFZ4S-cesx-88" target="aLZQUD1DjnwFZ4S-cesx-99">
          <mxGeometry relative="1" as="geometry" />
        </mxCell>
        <mxCell id="aLZQUD1DjnwFZ4S-cesx-88" value="" style="rounded=0;whiteSpace=wrap;html=1;fillColor=#FFD966;" vertex="1" parent="1">
          <mxGeometry x="1161" y="1710" width="20" height="10" as="geometry" />
        </mxCell>
        <mxCell id="aLZQUD1DjnwFZ4S-cesx-89" value="" style="rounded=0;whiteSpace=wrap;html=1;fillColor=#9999FF;" vertex="1" parent="1">
          <mxGeometry x="1181" y="1710" width="20" height="10" as="geometry" />
        </mxCell>
        <mxCell id="aLZQUD1DjnwFZ4S-cesx-90" value="" style="rounded=0;whiteSpace=wrap;html=1;fillColor=#FF66B3;" vertex="1" parent="1">
          <mxGeometry x="1201" y="1710" width="20" height="10" as="geometry" />
        </mxCell>
        <mxCell id="aLZQUD1DjnwFZ4S-cesx-91" value="" style="rounded=0;whiteSpace=wrap;html=1;fillColor=#CCCCFF;" vertex="1" parent="1">
          <mxGeometry x="1221" y="1710" width="20" height="10" as="geometry" />
        </mxCell>
        <mxCell id="aLZQUD1DjnwFZ4S-cesx-92" value="" style="rounded=0;whiteSpace=wrap;html=1;fillColor=#FFD966;" vertex="1" parent="1">
          <mxGeometry x="1080" y="1790" width="20" height="10" as="geometry" />
        </mxCell>
        <mxCell id="aLZQUD1DjnwFZ4S-cesx-93" value="" style="rounded=0;whiteSpace=wrap;html=1;fillColor=#9999FF;" vertex="1" parent="1">
          <mxGeometry x="1100" y="1790" width="20" height="10" as="geometry" />
        </mxCell>
        <mxCell id="aLZQUD1DjnwFZ4S-cesx-94" value="" style="rounded=0;whiteSpace=wrap;html=1;fillColor=#FF66B3;" vertex="1" parent="1">
          <mxGeometry x="1120" y="1790" width="20" height="10" as="geometry" />
        </mxCell>
        <mxCell id="aLZQUD1DjnwFZ4S-cesx-95" value="" style="rounded=0;whiteSpace=wrap;html=1;fillColor=#CCCCFF;" vertex="1" parent="1">
          <mxGeometry x="1140" y="1790" width="20" height="10" as="geometry" />
        </mxCell>
        <mxCell id="aLZQUD1DjnwFZ4S-cesx-102" style="edgeStyle=none;rounded=0;orthogonalLoop=1;jettySize=auto;html=1;entryX=0.5;entryY=0;entryDx=0;entryDy=0;" edge="1" parent="1" source="aLZQUD1DjnwFZ4S-cesx-99" target="aLZQUD1DjnwFZ4S-cesx-92">
          <mxGeometry relative="1" as="geometry" />
        </mxCell>
        <mxCell id="aLZQUD1DjnwFZ4S-cesx-99" value="0" style="ellipse;whiteSpace=wrap;html=1;aspect=fixed;" vertex="1" parent="1">
          <mxGeometry x="1080" y="1754" width="20" height="20" as="geometry" />
        </mxCell>
        <mxCell id="aLZQUD1DjnwFZ4S-cesx-185" value="00" style="rounded=0;whiteSpace=wrap;html=1;fillColor=#FFD966;" vertex="1" parent="1">
          <mxGeometry x="1051" y="730" width="40" height="40" as="geometry" />
        </mxCell>
        <mxCell id="aLZQUD1DjnwFZ4S-cesx-186" value="" style="rounded=0;whiteSpace=wrap;html=1;fillColor=#9999FF;" vertex="1" parent="1">
          <mxGeometry x="1091" y="730" width="40" height="40" as="geometry" />
        </mxCell>
        <mxCell id="aLZQUD1DjnwFZ4S-cesx-187" value="" style="rounded=0;whiteSpace=wrap;html=1;fillColor=#FF66B3;" vertex="1" parent="1">
          <mxGeometry x="1131" y="730" width="40" height="40" as="geometry" />
        </mxCell>
        <mxCell id="aLZQUD1DjnwFZ4S-cesx-188" value="" style="rounded=0;whiteSpace=wrap;html=1;fillColor=#CCCCFF;" vertex="1" parent="1">
          <mxGeometry x="1171" y="730" width="40" height="40" as="geometry" />
        </mxCell>
        <mxCell id="aLZQUD1DjnwFZ4S-cesx-189" value="..." style="rounded=0;whiteSpace=wrap;html=1;" vertex="1" parent="1">
          <mxGeometry x="1211" y="730" width="40" height="40" as="geometry" />
        </mxCell>
        <mxCell id="aLZQUD1DjnwFZ4S-cesx-190" value="" style="rounded=0;whiteSpace=wrap;html=1;fillColor=#FFCCE6;" vertex="1" parent="1">
          <mxGeometry x="1251" y="730" width="40" height="40" as="geometry" />
        </mxCell>
        <mxCell id="aLZQUD1DjnwFZ4S-cesx-191" value="01" style="rounded=0;whiteSpace=wrap;html=1;fillColor=#FFD966;" vertex="1" parent="1">
          <mxGeometry x="1051" y="769" width="40" height="40" as="geometry" />
        </mxCell>
        <mxCell id="aLZQUD1DjnwFZ4S-cesx-192" value="" style="rounded=0;whiteSpace=wrap;html=1;fillColor=#9999FF;" vertex="1" parent="1">
          <mxGeometry x="1091" y="769" width="40" height="40" as="geometry" />
        </mxCell>
        <mxCell id="aLZQUD1DjnwFZ4S-cesx-193" value="" style="rounded=0;whiteSpace=wrap;html=1;fillColor=#FF66B3;" vertex="1" parent="1">
          <mxGeometry x="1131" y="769" width="40" height="40" as="geometry" />
        </mxCell>
        <mxCell id="aLZQUD1DjnwFZ4S-cesx-194" value="" style="rounded=0;whiteSpace=wrap;html=1;fillColor=#CCCCFF;" vertex="1" parent="1">
          <mxGeometry x="1171" y="769" width="40" height="40" as="geometry" />
        </mxCell>
        <mxCell id="aLZQUD1DjnwFZ4S-cesx-195" value="..." style="rounded=0;whiteSpace=wrap;html=1;" vertex="1" parent="1">
          <mxGeometry x="1211" y="769" width="40" height="40" as="geometry" />
        </mxCell>
        <mxCell id="aLZQUD1DjnwFZ4S-cesx-196" value="" style="rounded=0;whiteSpace=wrap;html=1;fillColor=#FFCCE6;" vertex="1" parent="1">
          <mxGeometry x="1251" y="769" width="40" height="40" as="geometry" />
        </mxCell>
        <mxCell id="aLZQUD1DjnwFZ4S-cesx-197" value="02" style="rounded=0;whiteSpace=wrap;html=1;fillColor=#FFD966;" vertex="1" parent="1">
          <mxGeometry x="1051" y="810" width="40" height="40" as="geometry" />
        </mxCell>
        <mxCell id="aLZQUD1DjnwFZ4S-cesx-198" value="" style="rounded=0;whiteSpace=wrap;html=1;fillColor=#9999FF;" vertex="1" parent="1">
          <mxGeometry x="1091" y="810" width="40" height="40" as="geometry" />
        </mxCell>
        <mxCell id="aLZQUD1DjnwFZ4S-cesx-199" value="" style="rounded=0;whiteSpace=wrap;html=1;fillColor=#FF66B3;" vertex="1" parent="1">
          <mxGeometry x="1131" y="810" width="40" height="40" as="geometry" />
        </mxCell>
        <mxCell id="aLZQUD1DjnwFZ4S-cesx-200" value="" style="rounded=0;whiteSpace=wrap;html=1;fillColor=#CCCCFF;" vertex="1" parent="1">
          <mxGeometry x="1171" y="810" width="40" height="40" as="geometry" />
        </mxCell>
        <mxCell id="aLZQUD1DjnwFZ4S-cesx-201" value="..." style="rounded=0;whiteSpace=wrap;html=1;" vertex="1" parent="1">
          <mxGeometry x="1211" y="810" width="40" height="40" as="geometry" />
        </mxCell>
        <mxCell id="aLZQUD1DjnwFZ4S-cesx-202" value="" style="rounded=0;whiteSpace=wrap;html=1;fillColor=#FFCCE6;" vertex="1" parent="1">
          <mxGeometry x="1251" y="810" width="40" height="40" as="geometry" />
        </mxCell>
        <mxCell id="aLZQUD1DjnwFZ4S-cesx-203" value="03" style="rounded=0;whiteSpace=wrap;html=1;fillColor=#FFD966;" vertex="1" parent="1">
          <mxGeometry x="1051" y="850" width="40" height="40" as="geometry" />
        </mxCell>
        <mxCell id="aLZQUD1DjnwFZ4S-cesx-204" value="" style="rounded=0;whiteSpace=wrap;html=1;fillColor=#9999FF;" vertex="1" parent="1">
          <mxGeometry x="1091" y="850" width="40" height="40" as="geometry" />
        </mxCell>
        <mxCell id="aLZQUD1DjnwFZ4S-cesx-205" value="" style="rounded=0;whiteSpace=wrap;html=1;fillColor=#FF66B3;" vertex="1" parent="1">
          <mxGeometry x="1131" y="850" width="40" height="40" as="geometry" />
        </mxCell>
        <mxCell id="aLZQUD1DjnwFZ4S-cesx-206" value="" style="rounded=0;whiteSpace=wrap;html=1;fillColor=#CCCCFF;" vertex="1" parent="1">
          <mxGeometry x="1171" y="850" width="40" height="40" as="geometry" />
        </mxCell>
        <mxCell id="aLZQUD1DjnwFZ4S-cesx-207" value="..." style="rounded=0;whiteSpace=wrap;html=1;" vertex="1" parent="1">
          <mxGeometry x="1211" y="850" width="40" height="40" as="geometry" />
        </mxCell>
        <mxCell id="aLZQUD1DjnwFZ4S-cesx-208" value="" style="rounded=0;whiteSpace=wrap;html=1;fillColor=#FFCCE6;" vertex="1" parent="1">
          <mxGeometry x="1251" y="850" width="40" height="40" as="geometry" />
        </mxCell>
        <mxCell id="aLZQUD1DjnwFZ4S-cesx-210" value="" style="rounded=0;whiteSpace=wrap;html=1;" vertex="1" parent="1">
          <mxGeometry x="1041" y="900" width="260" height="180" as="geometry" />
        </mxCell>
        <mxCell id="aLZQUD1DjnwFZ4S-cesx-211" value="00" style="rounded=0;whiteSpace=wrap;html=1;fillColor=#FFD966;" vertex="1" parent="1">
          <mxGeometry x="1051" y="910" width="40" height="40" as="geometry" />
        </mxCell>
        <mxCell id="aLZQUD1DjnwFZ4S-cesx-212" value="" style="rounded=0;whiteSpace=wrap;html=1;fillColor=#9999FF;" vertex="1" parent="1">
          <mxGeometry x="1091" y="910" width="40" height="40" as="geometry" />
        </mxCell>
        <mxCell id="aLZQUD1DjnwFZ4S-cesx-213" value="" style="rounded=0;whiteSpace=wrap;html=1;fillColor=#FF66B3;" vertex="1" parent="1">
          <mxGeometry x="1131" y="910" width="40" height="40" as="geometry" />
        </mxCell>
        <mxCell id="aLZQUD1DjnwFZ4S-cesx-214" value="" style="rounded=0;whiteSpace=wrap;html=1;fillColor=#CCCCFF;" vertex="1" parent="1">
          <mxGeometry x="1171" y="910" width="40" height="40" as="geometry" />
        </mxCell>
        <mxCell id="aLZQUD1DjnwFZ4S-cesx-215" value="..." style="rounded=0;whiteSpace=wrap;html=1;" vertex="1" parent="1">
          <mxGeometry x="1211" y="910" width="40" height="40" as="geometry" />
        </mxCell>
        <mxCell id="aLZQUD1DjnwFZ4S-cesx-216" value="" style="rounded=0;whiteSpace=wrap;html=1;fillColor=#FFCCE6;" vertex="1" parent="1">
          <mxGeometry x="1251" y="910" width="40" height="40" as="geometry" />
        </mxCell>
        <mxCell id="aLZQUD1DjnwFZ4S-cesx-217" value="01" style="rounded=0;whiteSpace=wrap;html=1;fillColor=#FFD966;" vertex="1" parent="1">
          <mxGeometry x="1051" y="949" width="40" height="40" as="geometry" />
        </mxCell>
        <mxCell id="aLZQUD1DjnwFZ4S-cesx-218" value="" style="rounded=0;whiteSpace=wrap;html=1;fillColor=#9999FF;" vertex="1" parent="1">
          <mxGeometry x="1091" y="949" width="40" height="40" as="geometry" />
        </mxCell>
        <mxCell id="aLZQUD1DjnwFZ4S-cesx-219" value="" style="rounded=0;whiteSpace=wrap;html=1;fillColor=#FF66B3;" vertex="1" parent="1">
          <mxGeometry x="1131" y="949" width="40" height="40" as="geometry" />
        </mxCell>
        <mxCell id="aLZQUD1DjnwFZ4S-cesx-220" value="" style="rounded=0;whiteSpace=wrap;html=1;fillColor=#CCCCFF;" vertex="1" parent="1">
          <mxGeometry x="1171" y="949" width="40" height="40" as="geometry" />
        </mxCell>
        <mxCell id="aLZQUD1DjnwFZ4S-cesx-221" value="..." style="rounded=0;whiteSpace=wrap;html=1;" vertex="1" parent="1">
          <mxGeometry x="1211" y="949" width="40" height="40" as="geometry" />
        </mxCell>
        <mxCell id="aLZQUD1DjnwFZ4S-cesx-222" value="" style="rounded=0;whiteSpace=wrap;html=1;fillColor=#FFCCE6;" vertex="1" parent="1">
          <mxGeometry x="1251" y="949" width="40" height="40" as="geometry" />
        </mxCell>
        <mxCell id="aLZQUD1DjnwFZ4S-cesx-223" value="02" style="rounded=0;whiteSpace=wrap;html=1;fillColor=#FFD966;" vertex="1" parent="1">
          <mxGeometry x="1051" y="990" width="40" height="40" as="geometry" />
        </mxCell>
        <mxCell id="aLZQUD1DjnwFZ4S-cesx-224" value="" style="rounded=0;whiteSpace=wrap;html=1;fillColor=#9999FF;" vertex="1" parent="1">
          <mxGeometry x="1091" y="990" width="40" height="40" as="geometry" />
        </mxCell>
        <mxCell id="aLZQUD1DjnwFZ4S-cesx-225" value="" style="rounded=0;whiteSpace=wrap;html=1;fillColor=#FF66B3;" vertex="1" parent="1">
          <mxGeometry x="1131" y="990" width="40" height="40" as="geometry" />
        </mxCell>
        <mxCell id="aLZQUD1DjnwFZ4S-cesx-226" value="" style="rounded=0;whiteSpace=wrap;html=1;fillColor=#CCCCFF;" vertex="1" parent="1">
          <mxGeometry x="1171" y="990" width="40" height="40" as="geometry" />
        </mxCell>
        <mxCell id="aLZQUD1DjnwFZ4S-cesx-227" value="..." style="rounded=0;whiteSpace=wrap;html=1;" vertex="1" parent="1">
          <mxGeometry x="1211" y="990" width="40" height="40" as="geometry" />
        </mxCell>
        <mxCell id="aLZQUD1DjnwFZ4S-cesx-228" value="" style="rounded=0;whiteSpace=wrap;html=1;fillColor=#FFCCE6;" vertex="1" parent="1">
          <mxGeometry x="1251" y="990" width="40" height="40" as="geometry" />
        </mxCell>
        <mxCell id="aLZQUD1DjnwFZ4S-cesx-229" value="03" style="rounded=0;whiteSpace=wrap;html=1;fillColor=#FFD966;" vertex="1" parent="1">
          <mxGeometry x="1051" y="1030" width="40" height="40" as="geometry" />
        </mxCell>
        <mxCell id="aLZQUD1DjnwFZ4S-cesx-230" value="" style="rounded=0;whiteSpace=wrap;html=1;fillColor=#9999FF;" vertex="1" parent="1">
          <mxGeometry x="1091" y="1030" width="40" height="40" as="geometry" />
        </mxCell>
        <mxCell id="aLZQUD1DjnwFZ4S-cesx-231" value="" style="rounded=0;whiteSpace=wrap;html=1;fillColor=#FF66B3;" vertex="1" parent="1">
          <mxGeometry x="1131" y="1030" width="40" height="40" as="geometry" />
        </mxCell>
        <mxCell id="aLZQUD1DjnwFZ4S-cesx-232" value="" style="rounded=0;whiteSpace=wrap;html=1;fillColor=#CCCCFF;" vertex="1" parent="1">
          <mxGeometry x="1171" y="1030" width="40" height="40" as="geometry" />
        </mxCell>
        <mxCell id="aLZQUD1DjnwFZ4S-cesx-233" value="..." style="rounded=0;whiteSpace=wrap;html=1;" vertex="1" parent="1">
          <mxGeometry x="1211" y="1030" width="40" height="40" as="geometry" />
        </mxCell>
        <mxCell id="aLZQUD1DjnwFZ4S-cesx-234" value="" style="rounded=0;whiteSpace=wrap;html=1;fillColor=#FFCCE6;" vertex="1" parent="1">
          <mxGeometry x="1251" y="1030" width="40" height="40" as="geometry" />
        </mxCell>
        <mxCell id="aLZQUD1DjnwFZ4S-cesx-310" value="" style="rounded=0;whiteSpace=wrap;html=1;fillColor=#CCCCFF;" vertex="1" parent="1">
          <mxGeometry x="1321" y="730" width="40" height="40" as="geometry" />
        </mxCell>
        <mxCell id="aLZQUD1DjnwFZ4S-cesx-311" value="" style="rounded=0;whiteSpace=wrap;html=1;fillColor=#CCCCFF;" vertex="1" parent="1">
          <mxGeometry x="1361" y="730" width="40" height="40" as="geometry" />
        </mxCell>
        <mxCell id="aLZQUD1DjnwFZ4S-cesx-312" value="" style="rounded=0;whiteSpace=wrap;html=1;fillColor=#CCCCFF;" vertex="1" parent="1">
          <mxGeometry x="1401" y="730" width="40" height="40" as="geometry" />
        </mxCell>
        <mxCell id="aLZQUD1DjnwFZ4S-cesx-313" value="" style="rounded=0;whiteSpace=wrap;html=1;fillColor=#CCCCFF;" vertex="1" parent="1">
          <mxGeometry x="1441" y="730" width="40" height="40" as="geometry" />
        </mxCell>
        <mxCell id="aLZQUD1DjnwFZ4S-cesx-314" value="..." style="rounded=0;whiteSpace=wrap;html=1;fillColor=#CCCCFF;" vertex="1" parent="1">
          <mxGeometry x="1481" y="730" width="40" height="40" as="geometry" />
        </mxCell>
        <mxCell id="aLZQUD1DjnwFZ4S-cesx-315" value="" style="rounded=0;whiteSpace=wrap;html=1;fillColor=#CCCCFF;" vertex="1" parent="1">
          <mxGeometry x="1521" y="730" width="40" height="40" as="geometry" />
        </mxCell>
        <mxCell id="aLZQUD1DjnwFZ4S-cesx-316" value="" style="rounded=0;whiteSpace=wrap;html=1;fillColor=#CCCCFF;" vertex="1" parent="1">
          <mxGeometry x="1321" y="769" width="40" height="40" as="geometry" />
        </mxCell>
        <mxCell id="aLZQUD1DjnwFZ4S-cesx-317" value="" style="rounded=0;whiteSpace=wrap;html=1;fillColor=#CCCCFF;" vertex="1" parent="1">
          <mxGeometry x="1361" y="769" width="40" height="40" as="geometry" />
        </mxCell>
        <mxCell id="aLZQUD1DjnwFZ4S-cesx-318" value="" style="rounded=0;whiteSpace=wrap;html=1;fillColor=#CCCCFF;" vertex="1" parent="1">
          <mxGeometry x="1401" y="769" width="40" height="40" as="geometry" />
        </mxCell>
        <mxCell id="aLZQUD1DjnwFZ4S-cesx-319" value="" style="rounded=0;whiteSpace=wrap;html=1;fillColor=#CCCCFF;" vertex="1" parent="1">
          <mxGeometry x="1441" y="769" width="40" height="40" as="geometry" />
        </mxCell>
        <mxCell id="aLZQUD1DjnwFZ4S-cesx-320" value="..." style="rounded=0;whiteSpace=wrap;html=1;fillColor=#CCCCFF;" vertex="1" parent="1">
          <mxGeometry x="1481" y="769" width="40" height="40" as="geometry" />
        </mxCell>
        <mxCell id="aLZQUD1DjnwFZ4S-cesx-321" value="" style="rounded=0;whiteSpace=wrap;html=1;fillColor=#CCCCFF;" vertex="1" parent="1">
          <mxGeometry x="1521" y="769" width="40" height="40" as="geometry" />
        </mxCell>
        <mxCell id="aLZQUD1DjnwFZ4S-cesx-322" value="" style="rounded=0;whiteSpace=wrap;html=1;fillColor=#CCCCFF;" vertex="1" parent="1">
          <mxGeometry x="1321" y="810" width="40" height="40" as="geometry" />
        </mxCell>
        <mxCell id="aLZQUD1DjnwFZ4S-cesx-323" value="" style="rounded=0;whiteSpace=wrap;html=1;fillColor=#CCCCFF;" vertex="1" parent="1">
          <mxGeometry x="1361" y="810" width="40" height="40" as="geometry" />
        </mxCell>
        <mxCell id="aLZQUD1DjnwFZ4S-cesx-324" value="" style="rounded=0;whiteSpace=wrap;html=1;fillColor=#CCCCFF;" vertex="1" parent="1">
          <mxGeometry x="1401" y="810" width="40" height="40" as="geometry" />
        </mxCell>
        <mxCell id="aLZQUD1DjnwFZ4S-cesx-325" value="" style="rounded=0;whiteSpace=wrap;html=1;fillColor=#CCCCFF;" vertex="1" parent="1">
          <mxGeometry x="1441" y="810" width="40" height="40" as="geometry" />
        </mxCell>
        <mxCell id="aLZQUD1DjnwFZ4S-cesx-326" value="..." style="rounded=0;whiteSpace=wrap;html=1;fillColor=#CCCCFF;" vertex="1" parent="1">
          <mxGeometry x="1481" y="810" width="40" height="40" as="geometry" />
        </mxCell>
        <mxCell id="aLZQUD1DjnwFZ4S-cesx-327" value="" style="rounded=0;whiteSpace=wrap;html=1;fillColor=#CCCCFF;" vertex="1" parent="1">
          <mxGeometry x="1521" y="810" width="40" height="40" as="geometry" />
        </mxCell>
        <mxCell id="aLZQUD1DjnwFZ4S-cesx-328" value="" style="rounded=0;whiteSpace=wrap;html=1;fillColor=#CCCCFF;" vertex="1" parent="1">
          <mxGeometry x="1321" y="850" width="40" height="40" as="geometry" />
        </mxCell>
        <mxCell id="aLZQUD1DjnwFZ4S-cesx-329" value="" style="rounded=0;whiteSpace=wrap;html=1;fillColor=#CCCCFF;" vertex="1" parent="1">
          <mxGeometry x="1361" y="850" width="40" height="40" as="geometry" />
        </mxCell>
        <mxCell id="aLZQUD1DjnwFZ4S-cesx-330" value="" style="rounded=0;whiteSpace=wrap;html=1;fillColor=#CCCCFF;" vertex="1" parent="1">
          <mxGeometry x="1401" y="850" width="40" height="40" as="geometry" />
        </mxCell>
        <mxCell id="aLZQUD1DjnwFZ4S-cesx-331" value="" style="rounded=0;whiteSpace=wrap;html=1;fillColor=#CCCCFF;" vertex="1" parent="1">
          <mxGeometry x="1441" y="850" width="40" height="40" as="geometry" />
        </mxCell>
        <mxCell id="aLZQUD1DjnwFZ4S-cesx-332" value="..." style="rounded=0;whiteSpace=wrap;html=1;fillColor=#CCCCFF;" vertex="1" parent="1">
          <mxGeometry x="1481" y="850" width="40" height="40" as="geometry" />
        </mxCell>
        <mxCell id="aLZQUD1DjnwFZ4S-cesx-333" value="" style="rounded=0;whiteSpace=wrap;html=1;fillColor=#CCCCFF;" vertex="1" parent="1">
          <mxGeometry x="1521" y="850" width="40" height="40" as="geometry" />
        </mxCell>
        <mxCell id="aLZQUD1DjnwFZ4S-cesx-359" value="&lt;i&gt;DespuÃ©s de una pasada, se reduce la cantidad de filas en &quot;blockDim.X&quot;, es decir la cantidad de filas vÃ¡lidas son &quot;matrix.size / blockDim.X&quot;.&lt;br&gt;&lt;/i&gt;" style="text;html=1;strokeColor=none;fillColor=none;align=left;verticalAlign=middle;whiteSpace=wrap;rounded=0;" vertex="1" parent="1">
          <mxGeometry x="1040" y="1120" width="400" height="50" as="geometry" />
        </mxCell>
        <mxCell id="aLZQUD1DjnwFZ4S-cesx-360" value="&lt;i&gt;La distancia entre cada fila vÃ¡lida es &quot;blockDim.X&quot;.&lt;br&gt;&lt;/i&gt;" style="text;html=1;strokeColor=none;fillColor=none;align=left;verticalAlign=middle;whiteSpace=wrap;rounded=0;" vertex="1" parent="1">
          <mxGeometry x="1040" y="1160" width="400" height="40" as="geometry" />
        </mxCell>
        <mxCell id="aLZQUD1DjnwFZ4S-cesx-361" value="&lt;i&gt;Si queremos hacer la menor cantidad de reduce, se debe utilizar bloques con varias filas y pocas columnas. Problema: se pierde el acceso coalesced.&lt;br&gt;&lt;/i&gt;" style="text;html=1;strokeColor=none;fillColor=none;align=left;verticalAlign=middle;whiteSpace=wrap;rounded=0;" vertex="1" parent="1">
          <mxGeometry x="1040" y="1360" width="400" height="40" as="geometry" />
        </mxCell>
        <mxCell id="aLZQUD1DjnwFZ4S-cesx-362" value="&lt;i&gt;Â¿Cuantos bloques precisamos entonces?&amp;nbsp; Dado un tamaÃ±o blockDim.Y&amp;nbsp; fijo, podemos reducir &quot;1024 / blockDim.y&quot; elementos por bloque por columna.&lt;br&gt;&lt;/i&gt;" style="text;html=1;strokeColor=none;fillColor=none;align=left;verticalAlign=middle;whiteSpace=wrap;rounded=0;" vertex="1" parent="1">
          <mxGeometry x="1040" y="1200" width="400" height="41" as="geometry" />
        </mxCell>
        <mxCell id="aLZQUD1DjnwFZ4S-cesx-363" value="&lt;i&gt;Si quedan reducir &quot;n&quot; filas, entonces necesitamos n / (1024 / blockDim.y) bloques-fila, y lo necesario para rellenar a la derecha&amp;nbsp;&lt;br&gt;&lt;/i&gt;" style="text;html=1;strokeColor=none;fillColor=none;align=left;verticalAlign=middle;whiteSpace=wrap;rounded=0;" vertex="1" parent="1">
          <mxGeometry x="1041" y="1280" width="490" height="40" as="geometry" />
        </mxCell>
        <mxCell id="aLZQUD1DjnwFZ4S-cesx-364" value="&lt;i style=&quot;border-color: var(--border-color); color: rgb(0, 0, 0); font-family: Helvetica; font-size: 12px; font-variant-ligatures: normal; font-variant-caps: normal; font-weight: 400; letter-spacing: normal; orphans: 2; text-align: left; text-indent: 0px; text-transform: none; widows: 2; word-spacing: 0px; -webkit-text-stroke-width: 0px; background-color: rgb(251, 251, 251); text-decoration-thickness: initial; text-decoration-style: initial; text-decoration-color: initial;&quot;&gt;Ej: blockDim.y = 4, podemos reducir 256 elementos de cada columna&lt;/i&gt;" style="text;whiteSpace=wrap;html=1;" vertex="1" parent="1">
          <mxGeometry x="1040" y="1241" width="400" height="40" as="geometry" />
        </mxCell>
      </root>
    </mxGraphModel>
  </diagram>
</mxfile>
